<svg width="55" height="55" viewBox="0 0 55 55" fill="none" xmlns="http://www.w3.org/2000/svg">
<path d="M42.1875 9.78906C42.1875 9.2498 41.7503 8.8125 41.2109 8.8125C40.6716 8.8125 40.2343 9.2498 40.2343 9.78906V10.8992C39.1074 11.3084 38.2978 12.3916 38.2978 13.6543C38.2978 15.2697 39.6121 16.584 41.2275 16.584C41.766 16.584 42.2041 17.0221 42.2041 17.5605C42.2041 18.1015 41.7658 18.5372 41.2289 18.5372C41.226 18.5372 41.2229 18.5372 41.2199 18.5371C40.7971 18.5333 40.3616 18.2782 39.9603 17.7994C39.6138 17.3859 38.9979 17.3317 38.5845 17.6784C38.1713 18.0249 38.1171 18.6407 38.4635 19.0541C38.9799 19.67 39.5884 20.1013 40.2344 20.3216V21.5078C40.2344 22.0471 40.6717 22.4844 41.211 22.4844C41.7504 22.4844 42.1876 22.0471 42.1876 21.5078V20.33C43.3122 19.9411 44.1573 18.8658 44.1573 17.5605C44.1573 15.9451 42.843 14.6309 41.2276 14.6309C40.6891 14.6309 40.251 14.1928 40.251 13.6543C40.251 13.1201 40.6852 12.6821 41.2178 12.6777C41.5634 12.6769 41.9362 12.8518 42.2839 13.1881C42.6715 13.5632 43.2896 13.5532 43.6648 13.1655C44.0399 12.7779 44.0298 12.1598 43.6423 11.7847C43.1413 11.2998 42.6394 11.0271 42.1877 10.8801V9.78906H42.1875Z" fill="url(#paint0_linear)"/>
<path d="M46.0062 2.38086C46.1437 2.07852 46.1181 1.72725 45.9383 1.44795C45.7585 1.16865 45.4492 1 45.1172 1H37.3047C36.9727 1 36.6634 1.16875 36.4836 1.44795C36.3038 1.72715 36.2782 2.07852 36.4157 2.38086L37.9144 5.67647C35.1357 8.62041 32.4219 13.6765 32.4219 17.6016V19.5547C32.4219 23.899 35.6254 26.3906 41.2109 26.3906C46.7965 26.3906 50 23.899 50 19.5547V17.6016C50 13.6765 47.2861 8.62041 44.5075 5.67637L46.0062 2.38086ZM43.6003 2.95312L42.7121 4.90625H39.7098L38.8216 2.95312H43.6003ZM48.0469 17.6016V19.5547C48.0469 23.2864 44.939 24.4375 41.2109 24.4375C37.4815 24.4375 34.375 23.2856 34.375 19.5547V17.6016C34.375 14.1401 36.976 9.43574 39.4846 6.85938H42.9372C45.4459 9.43574 48.0469 14.1401 48.0469 17.6016Z" fill="url(#paint1_linear)"/>
<path d="M28.9227 26.9355C28.3843 26.9355 27.9462 26.4975 27.9462 25.959C27.9462 25.4248 28.3803 24.9868 28.913 24.9824C28.9153 24.9824 28.9177 24.9823 28.9202 24.9823C29.2679 24.9823 29.6339 25.1588 29.979 25.4928C30.3666 25.868 30.9847 25.8578 31.3599 25.4702C31.735 25.0826 31.7249 24.4645 31.3374 24.0894C30.8364 23.6045 30.3345 23.3318 29.8828 23.1848V22.0938C29.8828 21.5545 29.4456 21.1172 28.9062 21.1172C28.3669 21.1172 27.9297 21.5545 27.9297 22.0938V23.2039C26.8027 23.6131 25.9931 24.6963 25.9931 25.959C25.9931 27.5744 27.3074 28.8887 28.9228 28.8887C29.4613 28.8887 29.8994 29.3268 29.8994 29.8652C29.8994 30.4062 29.4611 30.8419 28.9242 30.8419C28.9213 30.8419 28.9182 30.8419 28.9152 30.8418C28.4925 30.838 28.0569 30.5829 27.6556 30.1041C27.3092 29.6907 26.6931 29.6364 26.2799 29.9831C25.8666 30.3296 25.8124 30.9454 26.1589 31.3588C26.6752 31.9747 27.2837 32.406 27.9298 32.6263V33.8125C27.9298 34.3518 28.367 34.7891 28.9063 34.7891C29.4457 34.7891 29.8829 34.3518 29.8829 33.8125V32.6347C31.0075 32.2458 31.8526 31.1705 31.8526 29.8652C31.8524 28.2498 30.5382 26.9355 28.9227 26.9355Z" fill="url(#paint2_linear)"/>
<path d="M17.1965 32.7949C16.7737 32.7911 16.3382 32.536 15.9369 32.0572C15.5904 31.6438 14.9745 31.5896 14.5611 31.9362C14.1478 32.2827 14.0936 32.8985 14.4401 33.3119C14.9564 33.9278 15.5649 34.3591 16.211 34.5794V35.7656C16.211 36.3049 16.6482 36.7422 17.1876 36.7422C17.7269 36.7422 18.1641 36.3049 18.1641 35.7656V34.5878C19.2887 34.1989 20.1339 33.1236 20.1339 31.8184C20.1339 30.2029 18.8196 28.8887 17.2042 28.8887C16.6657 28.8887 16.2276 28.4506 16.2276 27.9121C16.2276 27.3779 16.6618 26.9399 17.1944 26.9355C17.1967 26.9355 17.1992 26.9355 17.2016 26.9355C17.5494 26.9355 17.9153 27.1119 18.2604 27.4459C18.648 27.8211 19.2662 27.8109 19.6414 27.4233C20.0165 27.0357 20.0063 26.4176 19.6188 26.0425C19.1178 25.5576 18.616 25.285 18.1642 25.1379V24.0469C18.1642 23.5076 17.727 23.0703 17.1877 23.0703C16.6483 23.0703 16.2111 23.5076 16.2111 24.0469V25.157C15.0842 25.5662 14.2746 26.6494 14.2746 27.9121C14.2746 29.5275 15.5888 30.8418 17.2043 30.8418C17.7427 30.8418 18.1808 31.2799 18.1808 31.8184C18.1806 32.3598 17.7367 32.8035 17.1965 32.7949Z" fill="url(#paint3_linear)"/>
<path d="M2.72134 37.2182C3.23765 37.8341 3.84615 38.2653 4.49224 38.4856V39.6719C4.49224 40.2111 4.92945 40.6484 5.4688 40.6484C6.00816 40.6484 6.44536 40.2111 6.44536 39.6719V38.494C7.56997 38.1052 8.41509 37.0299 8.41509 35.7246C8.41509 34.1092 7.10083 32.7949 5.4854 32.7949C4.94693 32.7949 4.50884 32.3568 4.50884 31.8184C4.50884 31.2842 4.94302 30.8462 5.47564 30.8418C5.47798 30.8418 5.48042 30.8417 5.48286 30.8417C5.83062 30.8417 6.19654 31.0182 6.54165 31.3521C6.92925 31.7273 7.54741 31.7172 7.92261 31.3296C8.29771 30.942 8.28755 30.3238 7.90005 29.9487C7.39908 29.4639 6.89722 29.1912 6.44546 29.0441V27.9531C6.44546 27.4139 6.00825 26.9766 5.4689 26.9766C4.92954 26.9766 4.49234 27.4139 4.49234 27.9531V29.0633C3.36538 29.4725 2.55581 30.5557 2.55581 31.8184C2.55581 33.4338 3.87007 34.748 5.4855 34.748C6.02398 34.748 6.46206 35.1861 6.46206 35.7246C6.46206 36.2655 6.02378 36.7013 5.48687 36.7013C5.48394 36.7013 5.48091 36.7013 5.47788 36.7012C5.05513 36.6974 4.61958 36.4423 4.21831 35.9635C3.87183 35.55 3.25591 35.4958 2.84253 35.8425C2.42906 36.189 2.37486 36.8049 2.72134 37.2182Z" fill="url(#paint4_linear)"/>
<path d="M34.082 50.0234V37.7188C34.082 37.1795 33.6448 36.7422 33.1055 36.7422H25C24.4606 36.7422 24.0234 37.1795 24.0234 37.7188V50.0234C24.0234 50.5627 24.4606 51 25 51H33.1055C33.6448 51 34.082 50.5627 34.082 50.0234ZM32.1289 49.0469H25.9766V38.6953H32.1289V49.0469Z" fill="url(#paint5_linear)"/>
<path d="M12.0117 39.6719V50.0234C12.0117 50.5627 12.4489 51 12.9883 51H21.0938C21.6331 51 22.0703 50.5627 22.0703 50.0234V39.6719C22.0703 39.1326 21.6331 38.6953 21.0938 38.6953H12.9883C12.4489 38.6953 12.0117 39.1326 12.0117 39.6719ZM13.9648 40.6484H20.1172V49.0469H13.9648V40.6484Z" fill="url(#paint6_linear)"/>
<path d="M0.976562 51H9.08203C9.62139 51 10.0586 50.5627 10.0586 50.0234V43.5781C10.0586 43.0389 9.62139 42.6016 9.08203 42.6016H0.976562C0.437207 42.6016 0 43.0389 0 43.5781V50.0234C0 50.5627 0.437207 51 0.976562 51ZM1.95312 44.5547H8.10547V49.0469H1.95312V44.5547Z" fill="url(#paint7_linear)"/>
<path d="M3.44226 21.1199C2.90447 21.1604 2.50134 21.6294 2.54187 22.1672C2.58054 22.68 3.00867 23.0703 3.51462 23.0703C3.53923 23.0703 3.56413 23.0694 3.58913 23.0676C14.7809 22.2237 22.2332 17.0834 29.8829 8.95996V10.375C29.8829 10.9143 30.3201 11.3516 30.8594 11.3516C31.3988 11.3516 31.836 10.9143 31.836 10.375V6.46875C31.836 5.92949 31.3988 5.49219 30.8594 5.49219H26.9532C26.4138 5.49219 25.9766 5.92949 25.9766 6.46875C25.9766 7.00801 26.4138 7.44434 26.9532 7.44434H28.6252C22.1931 14.2913 15.1617 20.2363 3.44226 21.1199Z" fill="url(#paint8_linear)"/>
<path d="M45.1172 40.6484C45.6565 40.6484 46.0938 40.2112 46.0938 39.6719C46.0938 39.1325 45.6565 38.6953 45.1172 38.6953C44.5778 38.6953 44.1406 39.1325 44.1406 39.6719C44.1406 40.2112 44.5778 40.6484 45.1172 40.6484Z" fill="url(#paint9_linear)"/>
<path d="M46.0938 29.9062C46.0938 29.367 45.6565 28.9297 45.1172 28.9297H37.0117C36.4724 28.9297 36.0352 29.367 36.0352 29.9062V50.0234C36.0352 50.5627 36.4724 51 37.0117 51H45.1172C45.6565 51 46.0938 50.5627 46.0938 50.0234V44.0665C46.0938 43.5272 45.6565 43.0899 45.1172 43.0899C44.5778 43.0899 44.1406 43.5272 44.1406 44.0665V49.0469H37.9883V30.8828H44.1406V35.2773C44.1406 35.8166 44.5778 36.2539 45.1172 36.2539C45.6565 36.2539 46.0938 35.8166 46.0938 35.2773V29.9062Z" fill="url(#paint10_linear)"/>
<defs>
<linearGradient id="paint0_linear" x1="36.3185" y1="22.4844" x2="44.9772" y2="22.3738" gradientUnits="userSpaceOnUse">
<stop stop-color="#6025F5"/>
<stop offset="1" stop-color="#FF5555"/>
</linearGradient>
<linearGradient id="paint1_linear" x1="26.7321" y1="26.3906" x2="52.4272" y2="25.8663" gradientUnits="userSpaceOnUse">
<stop stop-color="#6025F5"/>
<stop offset="1" stop-color="#FF5555"/>
</linearGradient>
<linearGradient id="paint2_linear" x1="24.0138" y1="34.7891" x2="32.6725" y2="34.6785" gradientUnits="userSpaceOnUse">
<stop stop-color="#6025F5"/>
<stop offset="1" stop-color="#FF5555"/>
</linearGradient>
<linearGradient id="paint3_linear" x1="12.2951" y1="36.7422" x2="20.9538" y2="36.6316" gradientUnits="userSpaceOnUse">
<stop stop-color="#6025F5"/>
<stop offset="1" stop-color="#FF5555"/>
</linearGradient>
<linearGradient id="paint4_linear" x1="0.57633" y1="40.6484" x2="9.23499" y2="40.5379" gradientUnits="userSpaceOnUse">
<stop stop-color="#6025F5"/>
<stop offset="1" stop-color="#FF5555"/>
</linearGradient>
<linearGradient id="paint5_linear" x1="20.7676" y1="51" x2="35.4707" y2="50.6943" gradientUnits="userSpaceOnUse">
<stop stop-color="#6025F5"/>
<stop offset="1" stop-color="#FF5555"/>
</linearGradient>
<linearGradient id="paint6_linear" x1="8.75591" y1="51" x2="23.4568" y2="50.6458" gradientUnits="userSpaceOnUse">
<stop stop-color="#6025F5"/>
<stop offset="1" stop-color="#FF5555"/>
</linearGradient>
<linearGradient id="paint7_linear" x1="-3.25581" y1="51" x2="11.4353" y2="50.4814" gradientUnits="userSpaceOnUse">
<stop stop-color="#6025F5"/>
<stop offset="1" stop-color="#FF5555"/>
</linearGradient>
<linearGradient id="paint8_linear" x1="-6.9439" y1="23.0703" x2="35.796" y2="20.9708" gradientUnits="userSpaceOnUse">
<stop stop-color="#6025F5"/>
<stop offset="1" stop-color="#FF5555"/>
</linearGradient>
<linearGradient id="paint9_linear" x1="43.5084" y1="40.6484" x2="46.3621" y2="40.5643" gradientUnits="userSpaceOnUse">
<stop stop-color="#6025F5"/>
<stop offset="1" stop-color="#FF5555"/>
</linearGradient>
<linearGradient id="paint10_linear" x1="32.7793" y1="51" x2="47.4861" y2="50.8024" gradientUnits="userSpaceOnUse">
<stop stop-color="#6025F5"/>
<stop offset="1" stop-color="#FF5555"/>
</linearGradient>
</defs>
</svg>
