<svg width="55" height="55" viewBox="0 0 55 55" fill="none" xmlns="http://www.w3.org/2000/svg">
<g clip-path="url(#clip0)">
<path d="M47.3579 33.8309L40.345 39.0102C39.661 39.4988 38.9113 39.8702 38.1268 40.1213C38.5435 38.9152 38.4727 37.6223 37.9209 36.4656C37.3504 35.2697 36.3439 34.3802 35.0833 33.96L21.0849 29.3285C16.8718 27.9239 11.2043 28.5313 7.4207 31.9035H1.61133C0.721445 31.9035 0 32.625 0 33.5149V49.6281C0 50.518 0.721445 51.2395 1.61133 51.2395H8.05664C8.94652 51.2395 9.66797 50.518 9.66797 49.6281V48.424L22.3062 51.296C24.6109 51.8236 26.973 52.1006 29.1588 52.1006C29.2587 52.1006 29.3583 52.1 29.4574 52.0988C35.5732 52.0272 41.4799 50.0795 46.5389 46.4662L52.977 41.6978C55.2309 40.088 55.6727 36.9078 53.9421 34.7446C52.3387 32.7403 49.4465 32.339 47.3579 33.8309ZM6.44531 48.0168H3.22266V35.1262H6.44531V48.0168ZM51.1039 39.0754L44.6658 43.8438C40.1455 47.0724 34.8735 48.8126 29.4197 48.8764C27.4028 48.8999 25.191 48.6504 23.0228 48.1541L9.66797 45.1193V34.218C13.1398 31.2045 17.9329 31.6747 20.0691 32.3869L34.0677 37.0184C34.4866 37.1581 34.8221 37.4546 35.0122 37.8532C35.2025 38.2518 35.2217 38.6991 35.0667 39.1126C34.761 39.9278 33.8742 40.3508 33.0486 40.0754C33.0469 40.0749 33.0454 40.0747 33.0438 40.0741L23.171 36.8187C22.3258 36.5401 21.4149 36.9993 21.1361 37.8444C20.8575 38.6896 21.3167 39.6006 22.1618 39.8793L32.0953 43.1547C35.5072 44.2921 39.2915 43.7229 42.2181 41.6325L49.231 36.4533C49.9272 35.956 50.8911 36.0898 51.4256 36.7578C52.0014 37.4775 51.8597 38.5355 51.1039 39.0754Z" fill="url(#paint0_linear)"/>
<path d="M43.6044 16.6387C42.7443 16.1797 41.7518 15.9956 40.792 15.8175C40.0732 15.6841 39.3297 15.5463 38.9092 15.3218C38.6948 15.2073 38.6948 15.1777 38.6948 14.9848C38.6948 14.8706 38.8807 14.6622 39.236 14.4845C40.1158 14.0447 41.3565 14.0807 42.002 14.5648C42.7141 15.0988 43.7239 14.9545 44.2579 14.2426C44.7919 13.5307 44.6476 12.5207 43.9356 11.9867C43.4057 11.5893 42.7803 11.3052 42.1094 11.1363V10.7417C42.1094 9.85182 41.388 9.13037 40.4981 9.13037C39.6082 9.13037 38.8868 9.85182 38.8868 10.7417V11.1846C38.5115 11.2887 38.1447 11.4272 37.7948 11.6021C36.3188 12.3401 35.4722 13.5731 35.4722 14.9849C35.4722 16.395 36.136 17.4947 37.3919 18.165C38.2519 18.624 39.2444 18.8081 40.2042 18.9862C40.9232 19.1196 41.6665 19.2575 42.087 19.4819C42.3014 19.5963 42.3014 19.626 42.3014 19.8188C42.3014 19.9293 42.1107 20.1419 41.7574 20.3186C40.8784 20.7581 39.6387 20.7223 38.9942 20.2389C38.2823 19.7049 37.2723 19.8494 36.7383 20.5611C36.2044 21.2731 36.3487 22.2831 37.0606 22.817C37.5905 23.2145 38.216 23.4983 38.8868 23.6671V24.062C38.8868 24.9519 39.6082 25.6733 40.4981 25.6733C41.388 25.6733 42.1094 24.9519 42.1094 24.062V23.6167C42.4838 23.5128 42.8497 23.3755 43.1987 23.2009C44.6765 22.462 45.5241 21.2293 45.5241 19.8187C45.5241 18.4086 44.8602 17.309 43.6044 16.6387Z" fill="url(#paint1_linear)"/>
<path d="M40.498 31.9036C48.4944 31.9036 55 25.398 55 17.4016C55 9.40523 48.4944 2.89966 40.498 2.89966C32.5017 2.89966 25.9961 9.40523 25.9961 17.4016C25.9961 25.398 32.5017 31.9036 40.498 31.9036ZM40.498 6.12231C46.7175 6.12231 51.7773 11.1822 51.7773 17.4016C51.7773 23.621 46.7175 28.6809 40.498 28.6809C34.2786 28.6809 29.2188 23.621 29.2188 17.4016C29.2188 11.1822 34.2786 6.12231 40.498 6.12231Z" fill="url(#paint2_linear)"/>
</g>
<defs>
<linearGradient id="paint0_linear" x1="-17.8026" y1="52.1006" x2="62.2463" y2="46.5736" gradientUnits="userSpaceOnUse">
<stop stop-color="#6025F5"/>
<stop offset="1" stop-color="#FF5555"/>
</linearGradient>
<linearGradient id="paint1_linear" x1="32.2185" y1="25.6733" x2="46.9134" y2="25.4102" gradientUnits="userSpaceOnUse">
<stop stop-color="#6025F5"/>
<stop offset="1" stop-color="#FF5555"/>
</linearGradient>
<linearGradient id="paint2_linear" x1="16.608" y1="31.9036" x2="58.9857" y2="30.6545" gradientUnits="userSpaceOnUse">
<stop stop-color="#6025F5"/>
<stop offset="1" stop-color="#FF5555"/>
</linearGradient>
<clipPath id="clip0">
<rect width="55" height="55" fill="white"/>
</clipPath>
</defs>
</svg>
