<svg width="80" height="80" viewBox="0 0 80 80" fill="none" xmlns="http://www.w3.org/2000/svg">
<g clip-path="url(#clip0)">
<path d="M79.8737 42.6955C79.5113 41.7895 78.5146 41.427 77.6992 41.7895C68.1856 45.9573 63.4741 43.964 58.4907 41.8801C53.5074 39.7961 48.4335 37.6216 39.3729 41.7895C29.8593 45.9573 25.1478 43.964 20.1645 41.8801C15.1811 39.7961 10.0166 37.6216 0.956019 41.8801C0.140566 42.2425 -0.221857 43.2392 0.140566 44.0546C0.50299 44.8701 1.49965 45.2325 2.31511 44.8701C10.0166 41.2458 14.0939 42.9673 18.8054 44.9607C21.7954 46.2291 25.0572 47.5882 29.3157 47.5882C32.3963 47.5882 36.1111 46.8634 40.6414 44.8701C48.3429 41.2458 52.4202 42.9673 57.1317 44.9607C60.1217 46.2291 63.3835 47.5882 67.6419 47.5882C70.7225 47.5882 74.4374 46.8634 78.9677 44.8701C79.7831 44.5076 80.2362 43.511 79.8737 42.6955Z" fill="url(#paint0_linear)"/>
<path d="M79.7831 57.1019C79.5113 56.2864 78.5147 55.8334 77.6992 56.1958C68.1856 60.3637 63.4741 58.3703 58.4908 56.2864C53.5074 54.2025 48.4335 52.0279 39.3729 56.1958C29.8593 60.3637 25.1478 58.3703 20.1645 56.2864C15.1811 54.2025 10.0166 52.0279 0.956019 56.2864C0.140566 56.6488 -0.221857 57.6455 0.140566 58.4609C0.50299 59.2764 1.49965 59.6388 2.31511 59.2764C10.0166 55.6522 14.0939 57.3737 18.8054 59.367C21.7954 60.6355 25.0572 61.9946 29.3157 61.9946C32.3963 61.9946 36.1111 61.2697 40.6414 59.2764C48.3429 55.6522 52.4202 57.3737 57.1317 59.367C60.1217 60.6355 63.3835 61.9946 67.6419 61.9946C70.7225 61.9946 74.4374 61.2697 78.9677 59.2764C79.7831 58.914 80.2362 57.9173 79.7831 57.1019Z" fill="url(#paint1_linear)"/>
<path d="M79.7831 71.5988C79.5113 70.6927 78.5147 70.3303 77.6992 70.6927C68.1856 74.8606 63.4741 72.8673 58.4908 70.7833C53.5074 68.6994 48.4335 66.5249 39.3729 70.6927C29.8593 74.8606 25.1478 72.8673 20.1645 70.7833C15.1811 68.6994 10.0166 66.5249 0.956019 70.7833C0.140566 71.1458 -0.221857 72.1424 0.140566 72.9579C0.50299 73.7733 1.49965 74.1357 2.31511 73.7733C10.0166 70.1491 14.0939 71.8706 18.8054 73.8639C21.7954 75.1324 25.0572 76.4915 29.3157 76.4915C32.3963 76.4915 36.1111 75.7666 40.6414 73.7733C48.3429 70.1491 52.4202 71.8706 57.1317 73.8639C60.1217 75.1324 63.3835 76.4915 67.6419 76.4915C70.7225 76.4915 74.4374 75.7666 78.9677 73.7733C79.7831 73.4109 80.2362 72.4142 79.7831 71.5988Z" fill="url(#paint2_linear)"/>
<path d="M24.0605 13.0674L14.9999 4.00682C14.8187 3.8256 14.6375 3.735 14.4563 3.64439C14.0939 3.46318 13.5502 3.46318 13.1878 3.64439C13.0066 3.735 12.8254 3.8256 12.6442 4.00682L3.58358 13.0674C2.94934 13.7016 2.94934 14.7889 3.58358 15.4232C3.94601 15.7856 4.30843 15.8762 4.76146 15.8762C5.21449 15.8762 5.57691 15.695 5.93934 15.4232L12.1911 9.17135V27.3831C12.1911 28.2892 12.916 29.014 13.822 29.014C14.7281 29.014 15.453 28.2892 15.453 27.3831V9.17135L21.7048 15.4232C22.0672 15.7856 22.4296 15.8762 22.8826 15.8762C23.3357 15.8762 23.6981 15.695 24.0605 15.4232C24.6947 14.7889 24.6947 13.7016 24.0605 13.0674Z" fill="url(#paint3_linear)"/>
<path d="M50.2456 13.0674L41.185 4.00682C41.0038 3.8256 40.8226 3.735 40.6414 3.64439C40.279 3.46318 39.7353 3.46318 39.3729 3.64439C39.1917 3.735 39.0105 3.8256 38.8293 4.00682L29.7687 13.0674C29.1344 13.7016 29.1344 14.7889 29.7687 15.4232C30.1311 15.7856 30.4935 15.8762 30.9466 15.8762C31.3996 15.8762 31.762 15.695 32.1244 15.4232L38.3762 9.17135V27.3831C38.3762 28.3798 39.1011 29.1046 40.0071 29.1046C40.9132 29.1046 41.6381 28.3798 41.6381 27.4737V9.17135L47.8899 15.4232C48.2523 15.7856 48.6147 15.8762 49.0677 15.8762C49.5208 15.8762 49.8832 15.695 50.2456 15.4232C50.8799 14.7889 50.8799 13.7016 50.2456 13.0674Z" fill="url(#paint4_linear)"/>
<path d="M76.4307 13.0674L67.3701 4.00682C67.1889 3.8256 67.0077 3.735 66.8265 3.64439C66.4641 3.46318 65.9204 3.46318 65.558 3.64439C65.3768 3.735 65.1956 3.8256 65.0144 4.00682L55.9538 13.0674C55.3195 13.7016 55.3195 14.7889 55.9538 15.4232C56.3162 15.7856 56.6786 15.8762 57.1317 15.8762C57.5847 15.8762 57.9471 15.695 58.3095 15.4232L64.5613 9.17135V27.3831C64.5613 28.3798 65.2862 29.1046 66.1922 29.1046C67.0983 29.1046 67.8232 28.3798 67.8232 27.4737V9.17135L74.075 15.4232C74.4374 15.7856 74.7998 15.8762 75.2528 15.8762C75.7059 15.8762 76.0683 15.695 76.4307 15.4232C77.065 14.7889 77.065 13.7016 76.4307 13.0674Z" fill="url(#paint5_linear)"/>
</g>
<defs>
<linearGradient id="paint0_linear" x1="-25.8946" y1="47.5882" x2="82.1013" y2="16.4226" gradientUnits="userSpaceOnUse">
<stop stop-color="#6025F5"/>
<stop offset="1" stop-color="#FF5555"/>
</linearGradient>
<linearGradient id="paint1_linear" x1="-25.8825" y1="61.9946" x2="82.0707" y2="30.8558" gradientUnits="userSpaceOnUse">
<stop stop-color="#6025F5"/>
<stop offset="1" stop-color="#FF5555"/>
</linearGradient>
<linearGradient id="paint2_linear" x1="-25.8825" y1="76.4915" x2="82.0707" y2="45.3527" gradientUnits="userSpaceOnUse">
<stop stop-color="#6025F5"/>
<stop offset="1" stop-color="#FF5555"/>
</linearGradient>
<linearGradient id="paint3_linear" x1="-3.8281" y1="29.014" x2="27.4889" y2="28.2386" gradientUnits="userSpaceOnUse">
<stop stop-color="#6025F5"/>
<stop offset="1" stop-color="#FF5555"/>
</linearGradient>
<linearGradient id="paint4_linear" x1="22.357" y1="29.1046" x2="53.6741" y2="28.3319" gradientUnits="userSpaceOnUse">
<stop stop-color="#6025F5"/>
<stop offset="1" stop-color="#FF5555"/>
</linearGradient>
<linearGradient id="paint5_linear" x1="48.5421" y1="29.1046" x2="79.8592" y2="28.3319" gradientUnits="userSpaceOnUse">
<stop stop-color="#6025F5"/>
<stop offset="1" stop-color="#FF5555"/>
</linearGradient>
<clipPath id="clip0">
<rect width="80" height="80" fill="white" transform="translate(0.00012207)"/>
</clipPath>
</defs>
</svg>
