<svg width="54" height="60" viewBox="0 0 54 60" fill="none" xmlns="http://www.w3.org/2000/svg">
<path d="M28.3599 23.8499V26.8666C28.3599 27.8247 28.5517 28.6285 28.9289 29.2548C29.4499 30.119 30.305 30.6143 31.2759 30.6143C32.2271 30.6143 33.1724 30.1511 34.0856 29.2383L44.0493 19.2746C46.2365 17.0869 46.2365 13.5274 44.0489 11.3397L34.0856 1.37604C33.1724 0.462799 32.2271 0 31.2759 0C29.8248 0 28.3599 1.15906 28.3599 3.74771V6.48743C14.2141 7.32285 2.50359 18.1787 0.763176 32.3918C0.665673 33.1856 1.11703 33.9455 1.86089 34.2398C2.07147 34.3231 2.29073 34.3634 2.50726 34.3634C3.05566 34.3634 3.58758 34.1066 3.92632 33.6438C8.5946 27.2653 16.09 23.4572 23.9764 23.4572C25.438 23.4572 26.907 23.589 28.3599 23.8499ZM5.84573 26.5063C9.67171 16.7349 19.1941 9.95132 30.1177 9.95132C31.0886 9.95132 31.8755 9.16443 31.8755 8.19351V4.13818L41.5632 13.8254C42.3798 14.6425 42.3798 15.9718 41.5632 16.7889L31.8755 26.4761V22.4203C31.8755 21.6055 31.3157 20.8974 30.5224 20.7097C28.3682 20.2002 26.1654 19.9416 23.9764 19.9416C19.4445 19.9416 14.9365 21.0384 10.9393 23.1139C9.12789 24.0541 7.41769 25.1958 5.84573 26.5063Z" fill="black"/>
<path d="M28.3599 23.8499V26.8666C28.3599 27.8247 28.5517 28.6285 28.9289 29.2548C29.4499 30.119 30.305 30.6143 31.2759 30.6143C32.2271 30.6143 33.1724 30.1511 34.0856 29.2383L44.0493 19.2746C46.2365 17.0869 46.2365 13.5274 44.0489 11.3397L34.0856 1.37604C33.1724 0.462799 32.2271 0 31.2759 0C29.8248 0 28.3599 1.15906 28.3599 3.74771V6.48743C14.2141 7.32285 2.50359 18.1787 0.763176 32.3918C0.665673 33.1856 1.11703 33.9455 1.86089 34.2398C2.07147 34.3231 2.29073 34.3634 2.50726 34.3634C3.05566 34.3634 3.58758 34.1066 3.92632 33.6438C8.5946 27.2653 16.09 23.4572 23.9764 23.4572C25.438 23.4572 26.907 23.589 28.3599 23.8499ZM5.84573 26.5063C9.67171 16.7349 19.1941 9.95132 30.1177 9.95132C31.0886 9.95132 31.8755 9.16443 31.8755 8.19351V4.13818L41.5632 13.8254C42.3798 14.6425 42.3798 15.9718 41.5632 16.7889L31.8755 26.4761V22.4203C31.8755 21.6055 31.3157 20.8974 30.5224 20.7097C28.3682 20.2002 26.1654 19.9416 23.9764 19.9416C19.4445 19.9416 14.9365 21.0384 10.9393 23.1139C9.12789 24.0541 7.41769 25.1958 5.84573 26.5063Z" fill="url(#paint0_linear)"/>
<path d="M52.1085 25.7602C51.3646 25.4659 50.5155 25.7112 50.0431 26.3567C45.3748 32.7347 37.8798 36.5429 29.993 36.5429C28.5318 36.5429 27.0629 36.411 25.6095 36.1501V33.1334C25.6095 30.5448 24.1451 29.3857 22.6935 29.3857C21.7423 29.3857 20.797 29.849 19.8842 30.7622L9.92052 40.7254C7.73287 42.9131 7.73287 46.4727 9.92052 48.6608L19.8842 58.624C20.797 59.5372 21.7423 60 22.6935 60C24.1446 60 25.6095 58.841 25.6095 56.2523V53.5126C39.7557 52.6772 51.4658 41.8213 53.2062 27.6087C53.3037 26.8145 52.8523 26.0546 52.1085 25.7602ZM23.8516 50.0487C22.8807 50.0487 22.0938 50.8356 22.0938 51.8065V55.8619L12.4066 46.1751C11.5895 45.3576 11.5895 44.0282 12.4062 43.2116L22.0938 33.5239V37.5797C22.0938 38.395 22.6541 39.1031 23.4474 39.2908C25.6021 39.7998 27.8044 40.0585 29.993 40.0585C34.5253 40.0585 39.0334 38.9617 43.0301 36.8866C44.8415 35.9459 46.5517 34.8047 48.1236 33.4941C44.2977 43.2651 34.7753 50.0487 23.8516 50.0487Z" fill="black"/>
<path d="M52.1085 25.7602C51.3646 25.4659 50.5155 25.7112 50.0431 26.3567C45.3748 32.7347 37.8798 36.5429 29.993 36.5429C28.5318 36.5429 27.0629 36.411 25.6095 36.1501V33.1334C25.6095 30.5448 24.1451 29.3857 22.6935 29.3857C21.7423 29.3857 20.797 29.849 19.8842 30.7622L9.92052 40.7254C7.73287 42.9131 7.73287 46.4727 9.92052 48.6608L19.8842 58.624C20.797 59.5372 21.7423 60 22.6935 60C24.1446 60 25.6095 58.841 25.6095 56.2523V53.5126C39.7557 52.6772 51.4658 41.8213 53.2062 27.6087C53.3037 26.8145 52.8523 26.0546 52.1085 25.7602ZM23.8516 50.0487C22.8807 50.0487 22.0938 50.8356 22.0938 51.8065V55.8619L12.4066 46.1751C11.5895 45.3576 11.5895 44.0282 12.4062 43.2116L22.0938 33.5239V37.5797C22.0938 38.395 22.6541 39.1031 23.4474 39.2908C25.6021 39.7998 27.8044 40.0585 29.993 40.0585C34.5253 40.0585 39.0334 38.9617 43.0301 36.8866C44.8415 35.9459 46.5517 34.8047 48.1236 33.4941C44.2977 43.2651 34.7753 50.0487 23.8516 50.0487Z" fill="url(#paint1_linear)"/>
<defs>
<linearGradient id="paint0_linear" x1="-13.7963" y1="34.3634" x2="51.8248" y2="31.834" gradientUnits="userSpaceOnUse">
<stop stop-color="#6025F5"/>
<stop offset="1" stop-color="#FF5555"/>
</linearGradient>
<linearGradient id="paint1_linear" x1="-6.26645" y1="60" x2="59.3545" y2="57.4707" gradientUnits="userSpaceOnUse">
<stop stop-color="#6025F5"/>
<stop offset="1" stop-color="#FF5555"/>
</linearGradient>
</defs>
</svg>
