<svg width="80" height="80" viewBox="0 0 80 80" fill="none" xmlns="http://www.w3.org/2000/svg">
<g clip-path="url(#clip0)">
<path d="M69.8849 47.6232L69.8279 46.8405C68.9115 34.9106 63.3567 27.432 58.4563 20.8355C53.9186 14.7273 49.9996 9.45246 49.9996 1.66947C49.9996 1.04449 49.6496 0.47326 49.0946 0.186708C48.5379 -0.101406 47.869 -0.0542205 47.3629 0.313735C40.0032 5.58041 33.8625 14.4571 31.7174 22.9268C30.2283 28.8235 30.0312 35.4524 30.0036 39.8306C23.207 38.3787 21.6673 28.2115 21.6511 28.1008C21.5745 27.5735 21.2523 27.1145 20.7836 26.8638C20.31 26.6165 19.7533 26.5985 19.2732 26.8362C18.9168 27.0087 10.5251 31.2729 10.0368 48.3002C10.0026 48.8666 10.001 49.433 10.001 50.001C10.001 66.5418 23.4591 79.9998 39.9999 79.9998C56.5407 79.9998 69.9988 66.5418 69.9988 50.001C69.9988 49.171 69.9419 48.3963 69.8849 47.6232ZM39.9999 76.6667C34.4858 76.6667 30.0003 71.8883 30.0003 66.0144C30.0003 65.8143 29.9987 65.6124 30.0133 65.3651C30.08 62.888 30.5504 61.1969 31.0663 60.0723C32.0332 62.1491 33.7631 64.0581 36.5691 64.0581C37.4903 64.0581 38.2358 63.3127 38.2358 62.3914C38.2358 60.0184 38.2847 57.281 38.8754 54.8103C39.4012 52.618 40.6576 50.2889 42.2494 48.4206C42.9573 50.8456 44.3376 52.8084 45.6852 54.7241C47.6139 57.4649 49.6075 60.2984 49.9575 65.1306C49.9786 65.417 49.9999 65.7051 49.9999 66.0143C49.9995 71.8883 45.5141 76.6667 39.9999 76.6667ZM50.5327 74.4891C52.2626 72.13 53.3329 69.2138 53.3329 66.0144C53.3329 65.6223 53.3085 65.2576 53.2596 64.5757C52.8641 59.1348 50.4992 55.7723 48.4112 52.8054C46.6323 50.2794 45.0975 48.097 45.0975 45.0013C45.0975 44.3682 44.7394 43.7904 44.173 43.5089C43.6099 43.2256 42.9297 43.2892 42.4267 43.6717C39.2303 46.0869 36.5643 50.1525 35.6334 54.0342C35.1581 56.0248 34.9921 58.178 34.9335 59.9487C33.778 58.7053 33.4199 56.4007 33.4167 56.3698C33.3419 55.8343 33.0132 55.3672 32.533 55.1183C32.0562 54.8709 31.4849 54.8644 31.0048 55.1117C30.5848 55.3265 26.8953 57.4424 26.6837 65.2252C26.669 65.489 26.6674 65.7526 26.6674 66.0146C26.6674 69.214 27.7377 72.1301 29.4677 74.4893C19.9893 70.3965 13.3347 60.9643 13.3347 50.0013C13.3347 49.5016 13.3331 49.0037 13.3672 48.4485C13.6536 38.4586 16.8502 33.5044 18.9366 31.3187C20.3916 36.5268 24.2033 43.3348 31.6673 43.3348C32.5885 43.3348 33.3339 42.5894 33.3339 41.6681C33.3339 36.0905 33.4592 29.6455 34.9501 23.744C36.6427 17.058 41.2796 9.83823 46.8767 4.95075C47.806 12.0892 51.6942 17.3234 55.7811 22.8227C60.6393 29.3622 65.6619 36.1246 66.5033 47.0748L66.5603 47.8723C66.6124 48.5657 66.6661 49.2574 66.6661 50.0011C66.6657 60.9641 60.0111 70.3963 50.5327 74.4891Z" fill="url(#paint0_linear)"/>
</g>
<defs>
<linearGradient id="paint0_linear" x1="-9.41929" y1="79.9998" x2="78.277" y2="78.0614" gradientUnits="userSpaceOnUse">
<stop stop-color="#6025F5"/>
<stop offset="1" stop-color="#FF5555"/>
</linearGradient>
<clipPath id="clip0">
<rect width="80" height="80" fill="white"/>
</clipPath>
</defs>
</svg>
