<svg width="50" height="60" viewBox="0 0 50 60" fill="none" xmlns="http://www.w3.org/2000/svg">
<path d="M49.5022 34.0699L49.2371 29.3421L46.3509 33.096C46.1211 33.3948 45.6318 33.9234 45.0072 34.4052C45.254 33.5875 45.4743 32.6549 45.62 31.6262C46.1241 28.0639 45.8102 22.5966 41.4533 16.7794L39.6251 14.3386L38.4272 17.143C37.0455 20.3779 34.8098 22.0008 32.7319 21.2774C31.1323 20.7207 29.8321 18.89 29.1651 16.2544C28.5429 13.796 28.1813 9.47004 29.993 2.82129L30.7618 0L27.9091 0.642656C18.2862 2.81039 11.8019 9.64406 9.15674 20.4047C8.04486 24.928 7.83545 29.2134 7.86662 32.112C5.59295 30.2738 4.45752 28.6609 4.42775 28.6182L2.26201 25.4364L1.27553 29.162C0.733301 31.2097 0.458496 33.3281 0.458496 35.4584C0.458496 48.8896 11.3042 59.8332 24.6974 59.9963C24.7981 59.9988 24.899 60.0001 25.0003 60.0001C25.1015 60.0001 25.2024 59.9988 25.3031 59.9963C38.6964 59.8332 49.542 48.8896 49.542 35.4584C49.542 35.0089 49.5286 34.5417 49.5022 34.0699ZM25.0004 56.4814C20.461 56.4814 16.7681 52.7885 16.7681 48.2493C16.7681 40.3276 20.5142 36.7789 23.4343 35.216C23.0622 37.2272 23.3921 39.1329 24.0119 40.5518C24.9357 42.6664 26.584 44.0516 28.4214 44.2569C29.1432 44.3373 30.3513 44.2751 31.6176 43.3536C32.6567 44.76 33.2326 46.4756 33.2326 48.2493C33.2326 52.7886 29.5395 56.4814 25.0004 56.4814ZM35.3937 53.7265C36.2596 52.09 36.7511 50.226 36.7511 48.2493C36.7511 44.918 35.3286 41.7301 32.8484 39.5033L31.4056 38.208L30.2562 39.7696C29.9636 40.1672 29.3863 40.8256 28.8125 40.7603C28.3573 40.7094 27.6935 40.1897 27.2364 39.1433C26.6044 37.6969 26.4762 35.4101 28.0109 33.3305L30.4463 30.0301L26.3766 30.5401C26.2394 30.5573 22.9787 30.9892 19.7453 33.4193C14.3769 37.4541 13.2499 43.7108 13.2499 48.2493C13.2499 50.2264 13.7415 52.0908 14.6078 53.7275C8.26353 50.1042 3.97752 43.2727 3.97752 35.4582C3.97752 34.7917 4.00892 34.1266 4.07127 33.4656C5.25779 34.5898 6.86631 35.8991 8.91416 37.1141L11.9712 38.9266L11.5591 35.3959C11.5511 35.3273 10.7805 28.4607 12.5961 21.1553C14.672 12.8011 19.1362 7.34285 25.8856 4.89023C24.9444 9.53813 24.8947 13.721 25.7545 17.1178C26.717 20.9208 28.839 23.6482 31.5761 24.6005C33.4789 25.2625 35.5294 25.0164 37.3509 23.9077C38.3994 23.2695 39.3479 22.3611 40.1633 21.2239C41.9247 24.3694 42.5949 27.6411 42.1572 30.9805C41.7432 34.1393 40.4431 36.203 40.4343 36.2168L38.9293 38.5257L41.6573 38.9188C43.0307 39.1166 44.465 38.8146 45.8658 38.0414C45.0385 44.7609 41.0275 50.5085 35.3937 53.7265Z" fill="url(#paint0_linear)"/>
<defs>
<linearGradient id="paint0_linear" x1="-15.4291" y1="60.0001" x2="56.3076" y2="58.2705" gradientUnits="userSpaceOnUse">
<stop stop-color="#6025F5"/>
<stop offset="1" stop-color="#FF5555"/>
</linearGradient>
</defs>
</svg>
