<svg width="50" height="50" viewBox="0 0 50 50" fill="none" xmlns="http://www.w3.org/2000/svg">
<g clip-path="url(#clip0)">
<path d="M49.1966 0.803606C48.1983 -0.195081 46.4989 -0.26489 44.4107 0.606768C42.8349 1.2648 41.1293 2.4115 39.5348 3.87596C39.4489 3.79013 39.3646 3.70316 39.2776 3.61885C39.0854 3.43155 38.8306 3.32665 38.5612 3.3297L24.0379 3.63602C23.7854 3.64136 23.5443 3.74436 23.3654 3.92288L18.3407 8.9476C17.9581 9.3306 17.9581 9.95163 18.3407 10.3342C18.7237 10.7172 19.3443 10.7172 19.7273 10.3342L24.4736 5.58838L38.1142 5.30037C36.9186 6.60805 35.9386 7.98821 35.2654 9.31C33.8684 9.30695 32.4703 9.83681 31.4068 10.9003C30.3795 11.9276 29.8134 13.2941 29.8134 14.7471C29.8134 16.2001 30.3791 17.5661 31.4068 18.5934C32.4341 19.6211 33.8005 20.1868 35.2535 20.1868C36.7065 20.1868 38.0726 19.6211 39.1003 18.5934C40.1276 17.5661 40.6933 16.2001 40.6933 14.7471C40.6933 14.5049 40.6761 14.2653 40.6452 14.0295C40.6448 14.0261 40.6445 14.0227 40.6441 14.0192C40.4877 12.842 39.954 11.7541 39.1003 10.9003C38.5639 10.3644 37.9429 9.96422 37.2803 9.6991C37.851 8.69469 38.6208 7.65442 39.5363 6.65077L44.7014 11.8159L44.4122 25.527L22.3057 47.6332L2.36702 27.6946L14.1464 15.9151C14.5294 15.5322 14.5294 14.9115 14.1464 14.5285C13.7634 14.1455 13.1432 14.1455 12.7598 14.5285L0.287247 27.0014C0.103378 27.1853 0 27.4344 0 27.6946C0 27.9547 0.103378 28.2038 0.287247 28.3877L21.6125 49.713C21.804 49.9045 22.0547 50.0002 22.3057 50.0002C22.5567 50.0002 22.8077 49.9045 22.9992 49.713L46.0773 26.6348C46.2559 26.4559 46.3589 26.2148 46.3642 25.9619L46.6709 11.4386C46.6763 11.1716 46.5725 10.9137 46.3837 10.7249L46.1243 10.4655C47.5887 8.87093 48.7354 7.16538 49.3935 5.58953C50.2651 3.50174 50.1953 1.80191 49.1966 0.803606ZM35.2531 18.2261C34.3239 18.2261 33.4503 17.8641 32.793 17.2068C32.1362 16.5499 31.7741 15.676 31.7741 14.7467C31.7741 13.8174 32.1358 12.9439 32.793 12.2866C33.2703 11.8094 33.8528 11.5012 34.4662 11.3596C34.0759 12.887 34.28 14.1287 35.0758 14.9245C35.6117 15.4604 36.3461 15.729 37.2337 15.729C37.6682 15.729 38.1401 15.6626 38.6425 15.5341C38.4979 16.1623 38.1805 16.7395 37.7136 17.2068C37.0564 17.8641 36.1828 18.2261 35.2531 18.2261ZM38.5147 13.5317C37.3859 13.8995 36.7119 13.7877 36.4624 13.5378C36.1488 13.2243 36.1595 12.4499 36.4689 11.4882C36.9232 11.6568 37.3489 11.9223 37.7136 12.2866C38.0726 12.6456 38.3427 13.0698 38.5147 13.5317ZM47.5838 4.83422C47.0192 6.18614 46.0213 7.66815 44.7361 9.0773L40.9229 5.26375C42.3321 3.97858 43.8137 2.98065 45.166 2.41608C46.3963 1.90262 47.4342 1.81374 47.81 2.18987C48.1865 2.566 48.0976 3.60398 47.5838 4.83422Z" fill="url(#paint0_linear)"/>
<path d="M15.8679 26.9031C14.8551 27.9159 14.2974 29.2621 14.2974 30.6945C14.2974 31.7069 14.5774 32.6755 15.0985 33.5147L14.1295 34.4836C13.7465 34.8666 13.7465 35.4873 14.1295 35.8703C14.321 36.0618 14.572 36.1575 14.8227 36.1575C15.0737 36.1575 15.3247 36.0618 15.5162 35.8703L16.4206 34.9658C17.3491 35.6689 18.489 36.056 19.662 36.056C19.7463 36.056 19.8314 36.0541 19.916 36.0499C21.4198 35.9782 22.7698 35.237 23.6197 34.0171C24.4384 32.8422 24.6604 31.3857 24.2289 30.0212C24.0264 29.3807 23.6892 28.7585 23.2238 28.1627L27.2105 24.1756C27.399 24.6024 27.4989 25.0674 27.4989 25.5481C27.4989 26.4564 27.1453 27.3105 26.5029 27.9529C26.1199 28.3355 26.1199 28.9565 26.5029 29.3395C26.8855 29.7221 27.5061 29.7225 27.8895 29.3395C28.9019 28.3267 29.4597 26.9801 29.4597 25.5481C29.4597 24.5357 29.18 23.5667 28.659 22.7275L29.6279 21.7586C30.0105 21.3759 30.0105 20.7549 29.6279 20.3719C29.2449 19.9893 28.6242 19.9893 28.2412 20.3719L27.3364 21.2768C26.3404 20.523 25.1017 20.1312 23.841 20.1922C22.3372 20.264 20.9872 21.0052 20.1373 22.2251C19.3187 23.4004 19.097 24.8569 19.5281 26.221C19.7307 26.8615 20.0683 27.4837 20.5336 28.0795L16.5465 32.0666C16.3581 31.6398 16.2581 31.1748 16.2581 30.6941C16.2581 29.7858 16.6121 28.9317 17.2545 28.2897C17.6371 27.9067 17.6371 27.2861 17.2545 26.9031C16.8715 26.5201 16.2509 26.5201 15.8679 26.9031ZM22.3594 30.6125C22.6058 31.3922 22.4791 32.2246 22.0111 32.8963C21.5114 33.6135 20.7141 34.0488 19.8226 34.0915C19.1138 34.1258 18.4165 33.9351 17.8275 33.5589L21.8219 29.5646C22.0672 29.9113 22.2484 30.2619 22.3594 30.6125ZM21.3977 25.6297C21.1512 24.8504 21.2783 24.018 21.7463 23.3459C22.2457 22.6291 23.0433 22.1934 23.9344 22.1511C24.6425 22.1171 25.3402 22.3075 25.9295 22.6836L21.9352 26.678C21.6899 26.3309 21.5087 25.9807 21.3977 25.6297Z" fill="url(#paint1_linear)"/>
<path d="M15.3389 12.805C15.4969 13.1868 15.8932 13.4356 16.3056 13.4089C16.6981 13.3837 17.0456 13.1174 17.1723 12.7451C17.3027 12.3625 17.178 11.9295 16.866 11.6728C16.5409 11.4054 16.0668 11.3779 15.7132 11.606C15.321 11.8593 15.1604 12.3732 15.3389 12.805Z" fill="url(#paint2_linear)"/>
</g>
<defs>
<linearGradient id="paint0_linear" x1="-16.1842" y1="50.0002" x2="56.871" y2="47.847" gradientUnits="userSpaceOnUse">
<stop stop-color="#6025F5"/>
<stop offset="1" stop-color="#FF5555"/>
</linearGradient>
<linearGradient id="paint1_linear" x1="8.63985" y1="36.1575" x2="32.1235" y2="35.4654" gradientUnits="userSpaceOnUse">
<stop stop-color="#6025F5"/>
<stop offset="1" stop-color="#FF5555"/>
</linearGradient>
<linearGradient id="paint2_linear" x1="14.6329" y1="13.4108" x2="17.4924" y2="13.3266" gradientUnits="userSpaceOnUse">
<stop stop-color="#6025F5"/>
<stop offset="1" stop-color="#FF5555"/>
</linearGradient>
<clipPath id="clip0">
<rect width="50" height="50" fill="white"/>
</clipPath>
</defs>
</svg>
