<svg width="52" height="60" viewBox="0 0 52 60" fill="none" xmlns="http://www.w3.org/2000/svg">
<path d="M51.4867 16.2794L51.4849 16.2327C51.4588 15.6564 51.4414 15.0466 51.4309 14.3682C51.3819 11.06 48.7521 8.32349 45.4434 8.13855C38.5449 7.75357 33.2083 5.50413 28.6485 1.05971L28.6096 1.02263C27.1223 -0.341041 24.8788 -0.341041 23.3911 1.02263L23.3522 1.05971C18.7924 5.50413 13.4558 7.75357 6.55737 8.13901C3.24912 8.32349 0.618814 11.06 0.569833 14.3687C0.559762 15.0425 0.54191 15.6523 0.515817 16.2327L0.513071 16.3412C0.378946 23.3756 0.212321 32.1303 3.14108 40.0766C4.75149 44.4464 7.19045 48.2449 10.3898 51.3673C14.0335 54.9232 18.8062 57.7463 24.5749 59.7577C24.7626 59.8231 24.9576 59.8762 25.1563 59.916C25.4364 59.9719 25.7184 59.9998 26.0004 59.9998C26.2823 59.9998 26.5648 59.9719 26.8445 59.916C27.0431 59.8762 27.2395 59.8227 27.4281 59.7567C33.19 57.7417 37.9576 54.9173 41.5982 51.3618C44.7961 48.2385 47.2351 44.4391 48.8468 40.0684C51.7866 32.0983 51.6204 23.3271 51.4867 16.2794ZM45.5436 38.8503C42.4546 47.2255 36.149 52.9773 26.2663 56.4334C26.2311 56.4453 26.1935 56.4558 26.1546 56.4636C26.0526 56.4837 25.9486 56.4837 25.8452 56.4632C25.8067 56.4554 25.7692 56.4453 25.7344 56.4334C15.8412 52.9837 9.53145 47.2351 6.44476 38.8594C3.74533 31.5348 3.89822 23.4983 4.03326 16.4085L4.03418 16.3691C4.06165 15.7598 4.07996 15.1217 4.09003 14.4204C4.112 12.9515 5.28204 11.7361 6.75375 11.6542C10.6575 11.4363 14.0871 10.6819 17.2383 9.34796C20.3855 8.01587 23.1805 6.13813 25.7825 3.60762C25.9148 3.49592 26.0864 3.49547 26.2183 3.60762C28.8206 6.13813 31.6157 8.01587 34.7624 9.34796C37.9136 10.6819 41.3432 11.4363 45.2474 11.6542C46.7192 11.7361 47.8892 12.9515 47.9107 14.4209C47.9212 15.1258 47.9395 15.764 47.967 16.3691C48.1016 23.4672 48.2508 31.5101 45.5436 38.8503Z" fill="black"/>
<path d="M51.4867 16.2794L51.4849 16.2327C51.4588 15.6564 51.4414 15.0466 51.4309 14.3682C51.3819 11.06 48.7521 8.32349 45.4434 8.13855C38.5449 7.75357 33.2083 5.50413 28.6485 1.05971L28.6096 1.02263C27.1223 -0.341041 24.8788 -0.341041 23.3911 1.02263L23.3522 1.05971C18.7924 5.50413 13.4558 7.75357 6.55737 8.13901C3.24912 8.32349 0.618814 11.06 0.569833 14.3687C0.559762 15.0425 0.54191 15.6523 0.515817 16.2327L0.513071 16.3412C0.378946 23.3756 0.212321 32.1303 3.14108 40.0766C4.75149 44.4464 7.19045 48.2449 10.3898 51.3673C14.0335 54.9232 18.8062 57.7463 24.5749 59.7577C24.7626 59.8231 24.9576 59.8762 25.1563 59.916C25.4364 59.9719 25.7184 59.9998 26.0004 59.9998C26.2823 59.9998 26.5648 59.9719 26.8445 59.916C27.0431 59.8762 27.2395 59.8227 27.4281 59.7567C33.19 57.7417 37.9576 54.9173 41.5982 51.3618C44.7961 48.2385 47.2351 44.4391 48.8468 40.0684C51.7866 32.0983 51.6204 23.3271 51.4867 16.2794ZM45.5436 38.8503C42.4546 47.2255 36.149 52.9773 26.2663 56.4334C26.2311 56.4453 26.1935 56.4558 26.1546 56.4636C26.0526 56.4837 25.9486 56.4837 25.8452 56.4632C25.8067 56.4554 25.7692 56.4453 25.7344 56.4334C15.8412 52.9837 9.53145 47.2351 6.44476 38.8594C3.74533 31.5348 3.89822 23.4983 4.03326 16.4085L4.03418 16.3691C4.06165 15.7598 4.07996 15.1217 4.09003 14.4204C4.112 12.9515 5.28204 11.7361 6.75375 11.6542C10.6575 11.4363 14.0871 10.6819 17.2383 9.34796C20.3855 8.01587 23.1805 6.13813 25.7825 3.60762C25.9148 3.49592 26.0864 3.49547 26.2183 3.60762C28.8206 6.13813 31.6157 8.01587 34.7624 9.34796C37.9136 10.6819 41.3432 11.4363 45.2474 11.6542C46.7192 11.7361 47.8892 12.9515 47.9107 14.4209C47.9212 15.1258 47.9395 15.764 47.967 16.3691C48.1016 23.4672 48.2508 31.5101 45.5436 38.8503Z" fill="url(#paint0_linear)"/>
<path d="M25.9997 15.0481C17.7545 15.0481 11.0469 21.7562 11.0469 30.0009C11.0469 38.2462 17.7545 44.9543 25.9997 44.9543C34.2445 44.9543 40.9526 38.2462 40.9526 30.0009C40.9526 21.7562 34.2445 15.0481 25.9997 15.0481ZM25.9997 41.4331C19.6959 41.4331 14.5675 36.3048 14.5675 30.0009C14.5675 23.6971 19.6959 18.5688 25.9997 18.5688C32.3031 18.5688 37.4315 23.6971 37.4315 30.0009C37.4315 36.3048 32.3031 41.4331 25.9997 41.4331Z" fill="black"/>
<path d="M25.9997 15.0481C17.7545 15.0481 11.0469 21.7562 11.0469 30.0009C11.0469 38.2462 17.7545 44.9543 25.9997 44.9543C34.2445 44.9543 40.9526 38.2462 40.9526 30.0009C40.9526 21.7562 34.2445 15.0481 25.9997 15.0481ZM25.9997 41.4331C19.6959 41.4331 14.5675 36.3048 14.5675 30.0009C14.5675 23.6971 19.6959 18.5688 25.9997 18.5688C32.3031 18.5688 37.4315 23.6971 37.4315 30.0009C37.4315 36.3048 32.3031 41.4331 25.9997 41.4331Z" fill="url(#paint1_linear)"/>
<path d="M30.2973 25.3588L23.3521 32.304L21.467 30.4189C20.7795 29.7313 19.6648 29.7313 18.9772 30.4189C18.2901 31.1065 18.2901 32.2211 18.9772 32.9082L22.1074 36.0384C22.4512 36.3822 22.9016 36.5539 23.3521 36.5539C23.8025 36.5539 24.253 36.3822 24.5967 36.0384L32.7871 27.8481C33.4742 27.1605 33.4742 26.0459 32.7871 25.3588C32.0995 24.6708 30.9848 24.6708 30.2973 25.3588Z" fill="black"/>
<path d="M30.2973 25.3588L23.3521 32.304L21.467 30.4189C20.7795 29.7313 19.6648 29.7313 18.9772 30.4189C18.2901 31.1065 18.2901 32.2211 18.9772 32.9082L22.1074 36.0384C22.4512 36.3822 22.9016 36.5539 23.3521 36.5539C23.8025 36.5539 24.253 36.3822 24.5967 36.0384L32.7871 27.8481C33.4742 27.1605 33.4742 26.0459 32.7871 25.3588C32.0995 24.6708 30.9848 24.6708 30.2973 25.3588Z" fill="url(#paint2_linear)"/>
<defs>
<linearGradient id="paint0_linear" x1="-16.0849" y1="59.9998" x2="58.5853" y2="58.1257" gradientUnits="userSpaceOnUse">
<stop stop-color="#6025F5"/>
<stop offset="1" stop-color="#FF5555"/>
</linearGradient>
<linearGradient id="paint1_linear" x1="1.36687" y1="44.9543" x2="45.0622" y2="43.6664" gradientUnits="userSpaceOnUse">
<stop stop-color="#6025F5"/>
<stop offset="1" stop-color="#FF5555"/>
</linearGradient>
<linearGradient id="paint2_linear" x1="13.6583" y1="36.5539" x2="35.3304" y2="35.7444" gradientUnits="userSpaceOnUse">
<stop stop-color="#6025F5"/>
<stop offset="1" stop-color="#FF5555"/>
</linearGradient>
</defs>
</svg>
