<svg width="50" height="50" viewBox="0 0 50 50" fill="none" xmlns="http://www.w3.org/2000/svg">
<g clip-path="url(#clip0)">
<path d="M8.79402 38.6669C8.09402 38.6669 7.42111 38.8416 6.82411 39.1697C3.67928 35.1383 1.95312 30.1304 1.95312 25C1.95312 12.2917 12.2917 1.95312 25 1.95312C26.545 1.95312 28.0891 2.10686 29.5898 2.41013C30.1178 2.51694 30.6335 2.17514 30.7404 1.64642C30.8472 1.11771 30.5054 0.602722 29.9767 0.495529C28.3489 0.166702 26.6747 0 25 0C18.3224 0 12.0441 2.60048 7.32231 7.32231C2.60048 12.0441 0 18.3224 0 25C0 30.6171 1.90735 36.0989 5.37987 40.4934C4.93279 41.1613 4.69246 41.9464 4.69246 42.7685C4.69246 43.8641 5.11932 44.894 5.89409 45.6684C6.66847 46.4432 7.69844 46.87 8.79402 46.87C9.8896 46.87 10.9196 46.4432 11.6943 45.6684C12.4691 44.894 12.8956 43.8637 12.8956 42.7681C12.8956 41.6729 12.4691 40.6425 11.6943 39.8682C10.9196 39.0934 9.8896 38.6669 8.79402 38.6669ZM10.313 44.2875C9.90753 44.6934 9.36775 44.9169 8.79402 44.9169C8.22029 44.9169 7.68089 44.6934 7.27501 44.2875C6.86913 43.8816 6.64558 43.3422 6.64558 42.7685C6.64558 42.1944 6.86913 41.655 7.27501 41.2491C7.68051 40.8432 8.22029 40.62 8.79402 40.62C9.36775 40.62 9.90715 40.8436 10.313 41.2491C10.7189 41.655 10.9425 42.1944 10.9425 42.7685C10.9425 43.3422 10.7189 43.8816 10.313 44.2875Z" fill="black"/>
<path d="M8.79402 38.6669C8.09402 38.6669 7.42111 38.8416 6.82411 39.1697C3.67928 35.1383 1.95312 30.1304 1.95312 25C1.95312 12.2917 12.2917 1.95312 25 1.95312C26.545 1.95312 28.0891 2.10686 29.5898 2.41013C30.1178 2.51694 30.6335 2.17514 30.7404 1.64642C30.8472 1.11771 30.5054 0.602722 29.9767 0.495529C28.3489 0.166702 26.6747 0 25 0C18.3224 0 12.0441 2.60048 7.32231 7.32231C2.60048 12.0441 0 18.3224 0 25C0 30.6171 1.90735 36.0989 5.37987 40.4934C4.93279 41.1613 4.69246 41.9464 4.69246 42.7685C4.69246 43.8641 5.11932 44.894 5.89409 45.6684C6.66847 46.4432 7.69844 46.87 8.79402 46.87C9.8896 46.87 10.9196 46.4432 11.6943 45.6684C12.4691 44.894 12.8956 43.8637 12.8956 42.7681C12.8956 41.6729 12.4691 40.6425 11.6943 39.8682C10.9196 39.0934 9.8896 38.6669 8.79402 38.6669ZM10.313 44.2875C9.90753 44.6934 9.36775 44.9169 8.79402 44.9169C8.22029 44.9169 7.68089 44.6934 7.27501 44.2875C6.86913 43.8816 6.64558 43.3422 6.64558 42.7685C6.64558 42.1944 6.86913 41.655 7.27501 41.2491C7.68051 40.8432 8.22029 40.62 8.79402 40.62C9.36775 40.62 9.90715 40.8436 10.313 41.2491C10.7189 41.655 10.9425 42.1944 10.9425 42.7685C10.9425 43.3422 10.7189 43.8816 10.313 44.2875Z" fill="url(#paint0_linear)"/>
<path d="M44.6195 9.50539C45.6811 7.91275 45.5106 5.73532 44.1064 4.33113C43.3316 3.55675 42.3017 3.12988 41.2061 3.12988C40.1105 3.12988 39.0805 3.55675 38.3058 4.33113C37.531 5.1059 37.1045 6.13586 37.1045 7.23145C37.1045 8.32703 37.531 9.35699 38.3058 10.1318C39.0805 10.9065 40.1105 11.333 41.2061 11.333C41.9061 11.333 42.579 11.1583 43.176 10.8302C46.3208 14.862 48.047 19.8695 48.047 24.9999C48.047 37.7082 37.7084 48.0468 25.0001 48.0468C23.4704 48.0468 21.9407 47.8961 20.4541 47.5986C19.9254 47.4929 19.4108 47.8358 19.3048 48.3646C19.1991 48.8937 19.542 49.4079 20.0708 49.5139C21.6832 49.8363 23.3419 49.9999 25.0001 49.9999C31.6777 49.9999 37.956 47.3994 42.6778 42.6776C47.3996 37.9558 50.0001 31.6776 50.0001 24.9999C50.0001 19.3824 48.0924 13.9003 44.6195 9.50539ZM39.6871 8.75084C39.2812 8.34496 39.0577 7.80556 39.0577 7.23145C39.0577 6.65771 39.2812 6.11832 39.6871 5.71243C40.0926 5.30655 40.6324 5.08301 41.2061 5.08301C41.7798 5.08301 42.3196 5.30655 42.7255 5.71243C43.5628 6.55014 43.5628 7.91313 42.7255 8.75084C42.3196 9.15634 41.7798 9.37988 41.2061 9.37988C40.632 9.37988 40.0926 9.15634 39.6871 8.75084Z" fill="black"/>
<path d="M44.6195 9.50539C45.6811 7.91275 45.5106 5.73532 44.1064 4.33113C43.3316 3.55675 42.3017 3.12988 41.2061 3.12988C40.1105 3.12988 39.0805 3.55675 38.3058 4.33113C37.531 5.1059 37.1045 6.13586 37.1045 7.23145C37.1045 8.32703 37.531 9.35699 38.3058 10.1318C39.0805 10.9065 40.1105 11.333 41.2061 11.333C41.9061 11.333 42.579 11.1583 43.176 10.8302C46.3208 14.862 48.047 19.8695 48.047 24.9999C48.047 37.7082 37.7084 48.0468 25.0001 48.0468C23.4704 48.0468 21.9407 47.8961 20.4541 47.5986C19.9254 47.4929 19.4108 47.8358 19.3048 48.3646C19.1991 48.8937 19.542 49.4079 20.0708 49.5139C21.6832 49.8363 23.3419 49.9999 25.0001 49.9999C31.6777 49.9999 37.956 47.3994 42.6778 42.6776C47.3996 37.9558 50.0001 31.6776 50.0001 24.9999C50.0001 19.3824 48.0924 13.9003 44.6195 9.50539ZM39.6871 8.75084C39.2812 8.34496 39.0577 7.80556 39.0577 7.23145C39.0577 6.65771 39.2812 6.11832 39.6871 5.71243C40.0926 5.30655 40.6324 5.08301 41.2061 5.08301C41.7798 5.08301 42.3196 5.30655 42.7255 5.71243C43.5628 6.55014 43.5628 7.91313 42.7255 8.75084C42.3196 9.15634 41.7798 9.37988 41.2061 9.37988C40.632 9.37988 40.0926 9.15634 39.6871 8.75084Z" fill="url(#paint1_linear)"/>
<path d="M20.9702 41.7969C20.9702 42.3363 21.4078 42.7734 21.9468 42.7734H28.053C28.5924 42.7734 29.0295 42.3363 29.0295 41.7969V39.9036C30.3136 39.558 31.5411 39.0491 32.6947 38.3846L34.0314 39.7213C34.2145 39.9044 34.4628 40.0074 34.7222 40.0074C34.9808 40.0074 35.2296 39.9044 35.4127 39.7209L39.7286 35.4019C40.1097 35.0204 40.1097 34.4021 39.7286 34.021L38.3935 32.6859C39.058 31.5323 39.5669 30.3047 39.9125 29.0207H41.7985C42.3379 29.0207 42.775 28.5835 42.775 28.0441V21.9379C42.775 21.3985 42.3379 20.9614 41.7985 20.9614H39.9121C39.5665 19.6777 39.058 18.4502 38.3935 17.2966L39.7214 15.9687C39.9045 15.7856 40.0075 15.5369 40.0075 15.2779C40.0071 15.0188 39.9041 14.7701 39.721 14.587L35.4016 10.2711C35.0205 9.88998 34.4021 9.88998 34.0207 10.2715L32.6947 11.5978C31.5411 10.9333 30.3136 10.4244 29.0295 10.0788V8.20312C29.0295 7.66373 28.5924 7.22656 28.053 7.22656H21.9468C21.4078 7.22656 20.9702 7.66373 20.9702 8.20312V10.0792C19.6866 10.4244 18.459 10.9333 17.3054 11.5978L15.9791 10.2715C15.598 9.89037 14.9796 9.88998 14.5981 10.2711L10.2791 14.5874C10.0957 14.7705 9.99266 15.0188 9.99266 15.2779C9.99266 15.5369 10.0957 15.7856 10.2788 15.9687L11.6067 17.2966C10.9421 18.4502 10.4333 19.6774 10.0876 20.9614H8.20509C7.6657 20.9614 7.22853 21.3985 7.22853 21.9376L7.2251 28.0437C7.22472 28.3028 7.32771 28.5515 7.51082 28.7346C7.69392 28.9177 7.94226 29.0207 8.20166 29.0207H10.0876C10.4333 30.3047 10.9421 31.5323 11.6067 32.6859L10.2715 34.021C9.89043 34.4021 9.89005 35.0204 10.2715 35.4019L14.5875 39.7209C14.7706 39.904 15.0189 40.0074 15.2779 40.0074H15.2783C15.5373 40.0074 15.7857 39.9044 15.9688 39.7213L17.3051 38.3846C18.459 39.0491 19.6866 39.558 20.9702 39.9036V41.7969ZM17.6881 36.3308C17.3016 36.0809 16.7931 36.1351 16.4673 36.4605L15.2783 37.6495L12.3429 34.7118L13.5308 33.5236C13.8562 33.1982 13.9104 32.6897 13.6605 32.3032C12.7751 30.933 12.1525 29.4312 11.8107 27.8389C11.7139 27.3891 11.3164 27.0676 10.8559 27.0676H9.17861L9.18089 22.9145H10.8559C11.3164 22.9145 11.7139 22.5933 11.8107 22.1432C12.1525 20.5513 12.7751 19.0495 13.6605 17.6792C13.9104 17.2928 13.8562 16.7843 13.5308 16.4589L12.3505 15.2782L15.2882 12.3428L16.4673 13.5223C16.7931 13.8477 17.3012 13.9015 17.6881 13.652C19.0579 12.7666 20.5598 12.1441 22.152 11.8023C22.6018 11.7054 22.9233 11.3075 22.9233 10.8475V9.17969H27.0764V10.8471C27.0764 11.3075 27.3976 11.7054 27.8477 11.8019C29.4396 12.1441 30.9418 12.7663 32.3117 13.6517C32.6981 13.9015 33.2066 13.8477 33.532 13.522L34.7115 12.3428L37.6492 15.2782L36.4689 16.4585C36.1432 16.7843 36.0894 17.2928 36.3392 17.6792C37.2246 19.0495 37.8468 20.5513 38.189 22.1432C38.2855 22.5933 38.6834 22.9145 39.1438 22.9145H40.8219V27.0676H39.1438C38.6834 27.0676 38.2859 27.3891 38.189 27.8389C37.8472 29.4308 37.2246 30.933 36.3392 32.3029C36.0894 32.6897 36.1436 33.1982 36.4689 33.5236L37.6568 34.7115L34.7214 37.6492L33.5324 36.4605C33.2066 36.1347 32.6981 36.0809 32.3117 36.3308C30.9415 37.2162 29.4396 37.8384 27.8477 38.1805C27.3976 38.2774 27.0764 38.6749 27.0764 39.1354V40.8203H22.9233V39.1354C22.9233 38.6753 22.6018 38.2774 22.152 38.1805C20.5601 37.8387 19.0583 37.2162 17.6881 36.3308Z" fill="black"/>
<path d="M20.9702 41.7969C20.9702 42.3363 21.4078 42.7734 21.9468 42.7734H28.053C28.5924 42.7734 29.0295 42.3363 29.0295 41.7969V39.9036C30.3136 39.558 31.5411 39.0491 32.6947 38.3846L34.0314 39.7213C34.2145 39.9044 34.4628 40.0074 34.7222 40.0074C34.9808 40.0074 35.2296 39.9044 35.4127 39.7209L39.7286 35.4019C40.1097 35.0204 40.1097 34.4021 39.7286 34.021L38.3935 32.6859C39.058 31.5323 39.5669 30.3047 39.9125 29.0207H41.7985C42.3379 29.0207 42.775 28.5835 42.775 28.0441V21.9379C42.775 21.3985 42.3379 20.9614 41.7985 20.9614H39.9121C39.5665 19.6777 39.058 18.4502 38.3935 17.2966L39.7214 15.9687C39.9045 15.7856 40.0075 15.5369 40.0075 15.2779C40.0071 15.0188 39.9041 14.7701 39.721 14.587L35.4016 10.2711C35.0205 9.88998 34.4021 9.88998 34.0207 10.2715L32.6947 11.5978C31.5411 10.9333 30.3136 10.4244 29.0295 10.0788V8.20312C29.0295 7.66373 28.5924 7.22656 28.053 7.22656H21.9468C21.4078 7.22656 20.9702 7.66373 20.9702 8.20312V10.0792C19.6866 10.4244 18.459 10.9333 17.3054 11.5978L15.9791 10.2715C15.598 9.89037 14.9796 9.88998 14.5981 10.2711L10.2791 14.5874C10.0957 14.7705 9.99266 15.0188 9.99266 15.2779C9.99266 15.5369 10.0957 15.7856 10.2788 15.9687L11.6067 17.2966C10.9421 18.4502 10.4333 19.6774 10.0876 20.9614H8.20509C7.6657 20.9614 7.22853 21.3985 7.22853 21.9376L7.2251 28.0437C7.22472 28.3028 7.32771 28.5515 7.51082 28.7346C7.69392 28.9177 7.94226 29.0207 8.20166 29.0207H10.0876C10.4333 30.3047 10.9421 31.5323 11.6067 32.6859L10.2715 34.021C9.89043 34.4021 9.89005 35.0204 10.2715 35.4019L14.5875 39.7209C14.7706 39.904 15.0189 40.0074 15.2779 40.0074H15.2783C15.5373 40.0074 15.7857 39.9044 15.9688 39.7213L17.3051 38.3846C18.459 39.0491 19.6866 39.558 20.9702 39.9036V41.7969ZM17.6881 36.3308C17.3016 36.0809 16.7931 36.1351 16.4673 36.4605L15.2783 37.6495L12.3429 34.7118L13.5308 33.5236C13.8562 33.1982 13.9104 32.6897 13.6605 32.3032C12.7751 30.933 12.1525 29.4312 11.8107 27.8389C11.7139 27.3891 11.3164 27.0676 10.8559 27.0676H9.17861L9.18089 22.9145H10.8559C11.3164 22.9145 11.7139 22.5933 11.8107 22.1432C12.1525 20.5513 12.7751 19.0495 13.6605 17.6792C13.9104 17.2928 13.8562 16.7843 13.5308 16.4589L12.3505 15.2782L15.2882 12.3428L16.4673 13.5223C16.7931 13.8477 17.3012 13.9015 17.6881 13.652C19.0579 12.7666 20.5598 12.1441 22.152 11.8023C22.6018 11.7054 22.9233 11.3075 22.9233 10.8475V9.17969H27.0764V10.8471C27.0764 11.3075 27.3976 11.7054 27.8477 11.8019C29.4396 12.1441 30.9418 12.7663 32.3117 13.6517C32.6981 13.9015 33.2066 13.8477 33.532 13.522L34.7115 12.3428L37.6492 15.2782L36.4689 16.4585C36.1432 16.7843 36.0894 17.2928 36.3392 17.6792C37.2246 19.0495 37.8468 20.5513 38.189 22.1432C38.2855 22.5933 38.6834 22.9145 39.1438 22.9145H40.8219V27.0676H39.1438C38.6834 27.0676 38.2859 27.3891 38.189 27.8389C37.8472 29.4308 37.2246 30.933 36.3392 32.3029C36.0894 32.6897 36.1436 33.1982 36.4689 33.5236L37.6568 34.7115L34.7214 37.6492L33.5324 36.4605C33.2066 36.1347 32.6981 36.0809 32.3117 36.3308C30.9415 37.2162 29.4396 37.8384 27.8477 38.1805C27.3976 38.2774 27.0764 38.6749 27.0764 39.1354V40.8203H22.9233V39.1354C22.9233 38.6753 22.6018 38.2774 22.152 38.1805C20.5601 37.8387 19.0583 37.2162 17.6881 36.3308Z" fill="url(#paint2_linear)"/>
<path d="M33.0691 24.9999C33.0691 20.5504 29.4494 16.9307 24.9999 16.9307C20.5504 16.9307 16.9307 20.5504 16.9307 24.9999C16.9307 29.4494 20.5504 33.0691 24.9999 33.0691C29.4494 33.0691 33.0691 29.4494 33.0691 24.9999ZM18.8838 24.9999C18.8838 21.6273 21.6273 18.8838 24.9999 18.8838C28.3725 18.8838 31.116 21.6277 31.116 24.9999C31.116 28.3721 28.3725 31.116 24.9999 31.116C21.6273 31.116 18.8838 28.3725 18.8838 24.9999Z" fill="black"/>
<path d="M33.0691 24.9999C33.0691 20.5504 29.4494 16.9307 24.9999 16.9307C20.5504 16.9307 16.9307 20.5504 16.9307 24.9999C16.9307 29.4494 20.5504 33.0691 24.9999 33.0691C29.4494 33.0691 33.0691 29.4494 33.0691 24.9999ZM18.8838 24.9999C18.8838 21.6273 21.6273 18.8838 24.9999 18.8838C28.3725 18.8838 31.116 21.6277 31.116 24.9999C31.116 28.3721 28.3725 31.116 24.9999 31.116C21.6273 31.116 18.8838 28.3725 18.8838 24.9999Z" fill="url(#paint3_linear)"/>
<path d="M33.9919 3.69328C34.2491 3.69328 34.5008 3.58876 34.6824 3.40718C34.864 3.22446 34.9685 2.97269 34.9685 2.71558C34.9685 2.45999 34.8644 2.20784 34.6824 2.02512C34.5008 1.84354 34.2491 1.73901 33.9919 1.73901C33.7341 1.73901 33.4834 1.84354 33.3019 2.02512C33.1199 2.20784 33.0154 2.45885 33.0154 2.71558C33.0154 2.97345 33.1199 3.22446 33.3019 3.40718C33.4834 3.58876 33.7341 3.69328 33.9919 3.69328Z" fill="black"/>
<path d="M33.9919 3.69328C34.2491 3.69328 34.5008 3.58876 34.6824 3.40718C34.864 3.22446 34.9685 2.97269 34.9685 2.71558C34.9685 2.45999 34.8644 2.20784 34.6824 2.02512C34.5008 1.84354 34.2491 1.73901 33.9919 1.73901C33.7341 1.73901 33.4834 1.84354 33.3019 2.02512C33.1199 2.20784 33.0154 2.45885 33.0154 2.71558C33.0154 2.97345 33.1199 3.22446 33.3019 3.40718C33.4834 3.58876 33.7341 3.69328 33.9919 3.69328Z" fill="url(#paint4_linear)"/>
<path d="M16.0508 46.3242C15.7941 46.3242 15.5419 46.4287 15.3603 46.6103C15.1787 46.7919 15.0742 47.0441 15.0742 47.3008C15.0742 47.5587 15.1787 47.8097 15.3603 47.9912C15.5419 48.1728 15.7941 48.2773 16.0508 48.2773C16.3075 48.2773 16.5597 48.1728 16.7412 47.9912C16.9228 47.8097 17.0273 47.5575 17.0273 47.3008C17.0273 47.0441 16.9228 46.7919 16.7412 46.6103C16.5597 46.4287 16.3075 46.3242 16.0508 46.3242Z" fill="black"/>
<path d="M16.0508 46.3242C15.7941 46.3242 15.5419 46.4287 15.3603 46.6103C15.1787 46.7919 15.0742 47.0441 15.0742 47.3008C15.0742 47.5587 15.1787 47.8097 15.3603 47.9912C15.5419 48.1728 15.7941 48.2773 16.0508 48.2773C16.3075 48.2773 16.5597 48.1728 16.7412 47.9912C16.9228 47.8097 17.0273 47.5575 17.0273 47.3008C17.0273 47.0441 16.9228 46.7919 16.7412 46.6103C16.5597 46.4287 16.3075 46.3242 16.0508 46.3242Z" fill="url(#paint5_linear)"/>
</g>
<defs>
<linearGradient id="paint0_linear" x1="-9.95649" y1="46.87" x2="35.0091" y2="46.0003" gradientUnits="userSpaceOnUse">
<stop stop-color="#6025F5"/>
<stop offset="1" stop-color="#FF5555"/>
</linearGradient>
<linearGradient id="paint1_linear" x1="9.34385" y1="49.9999" x2="54.2431" y2="49.1327" gradientUnits="userSpaceOnUse">
<stop stop-color="#6025F5"/>
<stop offset="1" stop-color="#FF5555"/>
</linearGradient>
<linearGradient id="paint2_linear" x1="-4.28185" y1="42.7734" x2="47.6603" y2="41.2424" gradientUnits="userSpaceOnUse">
<stop stop-color="#6025F5"/>
<stop offset="1" stop-color="#FF5555"/>
</linearGradient>
<linearGradient id="paint3_linear" x1="11.7069" y1="33.0691" x2="35.2869" y2="32.3741" gradientUnits="userSpaceOnUse">
<stop stop-color="#6025F5"/>
<stop offset="1" stop-color="#FF5555"/>
</linearGradient>
<linearGradient id="paint4_linear" x1="32.3832" y1="3.69328" x2="35.2369" y2="3.60922" gradientUnits="userSpaceOnUse">
<stop stop-color="#6025F5"/>
<stop offset="1" stop-color="#FF5555"/>
</linearGradient>
<linearGradient id="paint5_linear" x1="14.442" y1="48.2773" x2="17.2957" y2="48.1932" gradientUnits="userSpaceOnUse">
<stop stop-color="#6025F5"/>
<stop offset="1" stop-color="#FF5555"/>
</linearGradient>
<clipPath id="clip0">
<rect width="50" height="50" fill="white"/>
</clipPath>
</defs>
</svg>
