<svg width="80" height="80" viewBox="0 0 80 80" fill="none" xmlns="http://www.w3.org/2000/svg">
<path d="M18.3334 40.8334C11.8334 40.8334 6.66675 46.0001 6.66675 52.5001C6.66675 59.0001 11.8334 64.1667 18.3334 64.1667C24.8334 64.1667 30.0001 59.0001 30.0001 52.5001C30.0001 46.0001 24.8334 40.8334 18.3334 40.8334ZM18.3334 60.8335C13.6668 60.8335 10 57.1667 10 52.5001C10 47.8334 13.6668 44.1667 18.3334 44.1667C23 44.1667 26.6668 47.8334 26.6668 52.5001C26.6666 57.1667 23 60.8335 18.3334 60.8335Z" fill="url(#paint0_linear)"/>
<path d="M18.3334 60.8335C8.16665 60.8335 0 69.0001 0 79.1667H3.33328C3.33328 70.8333 10 64.1667 18.3332 64.1667C26.6664 64.1667 33.3332 70.8335 33.3332 79.1667H36.6665C36.6666 69.0001 28.5 60.8335 18.3334 60.8335Z" fill="url(#paint1_linear)"/>
<path d="M61.6668 40.8334C55.1668 40.8334 50.0001 46.0001 50.0001 52.5001C50.0001 59.0001 55.1668 64.1667 61.6668 64.1667C68.1668 64.1667 73.3334 59.0001 73.3334 52.5001C73.3334 46.0001 68.1668 40.8334 61.6668 40.8334ZM61.6668 60.8335C57.0002 60.8335 53.3334 57.1667 53.3334 52.5001C53.3334 47.8334 57 44.1667 61.6668 44.1667C66.3336 44.1667 70.0002 47.8334 70.0002 52.5001C70 57.1667 66.3334 60.8335 61.6668 60.8335Z" fill="url(#paint2_linear)"/>
<path d="M61.6668 60.8335C51.5 60.8335 43.3334 69.0001 43.3334 79.1667H46.6667C46.6667 70.8333 53.3334 64.1667 61.6666 64.1667C69.9998 64.1667 76.6666 70.8335 76.6666 79.1667H79.9998C80 69.0001 71.8334 60.8335 61.6668 60.8335Z" fill="url(#paint3_linear)"/>
<path d="M40.0001 0.833313C33.5001 0.833313 28.3334 5.99997 28.3334 12.5C28.3334 19 33.5001 24.1666 40.0001 24.1666C46.5001 24.1666 51.6667 19 51.6667 12.5C51.6667 5.99997 46.5001 0.833313 40.0001 0.833313ZM40.0001 20.8334C35.3335 20.8334 31.6667 17.1666 31.6667 12.5C31.6667 7.83335 35.3335 4.1666 40.0001 4.1666C44.6667 4.1666 48.3335 7.83335 48.3335 12.5C48.3335 17.1666 44.6667 20.8334 40.0001 20.8334Z" fill="url(#paint4_linear)"/>
<path d="M40.0001 20.8334C29.8333 20.8334 21.6667 29 21.6667 39.1668H25C25 30.8334 31.6667 24.1668 39.9999 24.1668C48.3331 24.1668 54.9999 30.8336 54.9999 39.1668H58.3332C58.3333 29 50.1667 20.8334 40.0001 20.8334Z" fill="url(#paint5_linear)"/>
<defs>
<linearGradient id="paint0_linear" x1="-0.885882" y1="64.1667" x2="33.2065" y2="63.1619" gradientUnits="userSpaceOnUse">
<stop stop-color="#6025F5"/>
<stop offset="1" stop-color="#FF5555"/>
</linearGradient>
<linearGradient id="paint1_linear" x1="-11.8684" y1="79.1667" x2="41.566" y2="76.0169" gradientUnits="userSpaceOnUse">
<stop stop-color="#6025F5"/>
<stop offset="1" stop-color="#FF5555"/>
</linearGradient>
<linearGradient id="paint2_linear" x1="42.4475" y1="64.1667" x2="76.5399" y2="63.1619" gradientUnits="userSpaceOnUse">
<stop stop-color="#6025F5"/>
<stop offset="1" stop-color="#FF5555"/>
</linearGradient>
<linearGradient id="paint3_linear" x1="31.465" y1="79.1667" x2="84.8994" y2="76.0169" gradientUnits="userSpaceOnUse">
<stop stop-color="#6025F5"/>
<stop offset="1" stop-color="#FF5555"/>
</linearGradient>
<linearGradient id="paint4_linear" x1="20.7808" y1="24.1666" x2="54.8732" y2="23.1618" gradientUnits="userSpaceOnUse">
<stop stop-color="#6025F5"/>
<stop offset="1" stop-color="#FF5555"/>
</linearGradient>
<linearGradient id="paint5_linear" x1="9.79833" y1="39.1668" x2="63.2327" y2="36.017" gradientUnits="userSpaceOnUse">
<stop stop-color="#6025F5"/>
<stop offset="1" stop-color="#FF5555"/>
</linearGradient>
</defs>
</svg>
