<svg width="648" height="102" viewBox="0 0 648 102" fill="none" xmlns="http://www.w3.org/2000/svg">
<path fill-rule="evenodd" clip-rule="evenodd" d="M15.2031 8.57983H82.6151V31.1521H44.4282V42.7503H77.9134V65.3226H44.4282V91.0078H15.2031V8.57983ZM17.3649 10.7416V88.846H42.2665V63.1609H75.7517V44.9121H42.2665V28.9904H80.4534V10.7416H17.3649Z" fill="url(#paint0_linear)"/>
<path fill-rule="evenodd" clip-rule="evenodd" d="M113.921 31.3283C118.656 27.0598 125.105 24.9771 133.138 24.9771H134.219V50.2497L132.975 50.0596C130.961 49.7519 129.095 49.6134 127.404 49.6134C123.146 49.6134 120.146 50.6938 118.201 52.6697C116.254 54.6489 115.183 57.7104 115.183 62.0631V91.0078H87.1045V26.1237H113.921V31.3283ZM132.057 27.1522C123.879 27.3571 117.803 29.9109 113.656 34.6792L111.76 36.86V28.2855H89.2663V88.846H113.021V62.0631C113.021 57.3858 114.172 53.682 116.661 51.1534C119.153 48.6215 122.804 47.4516 127.404 47.4516C128.852 47.4516 130.408 47.5467 132.057 47.7506V27.1522Z" fill="url(#paint1_linear)"/>
<path fill-rule="evenodd" clip-rule="evenodd" d="M153.46 29.2233C159.018 26.3853 165.239 24.9771 172.127 24.9771C178.611 24.9771 184.564 26.2688 189.969 28.8678C195.4 31.479 199.709 35.3432 202.913 40.3849L202.914 40.3873C206.137 45.4899 207.726 51.5458 207.726 58.5084C207.726 58.9253 207.607 61.0125 207.379 64.6531L207.316 65.6666H164.429C165.255 67.1054 166.392 68.2399 167.858 69.1C169.802 70.2403 172.266 70.8435 175.338 70.8435C178.009 70.8435 180.195 70.5085 181.902 69.8784C183.639 69.2371 185.608 68.1236 187.754 66.4797L188.509 65.9012L203.432 80.9495L202.744 81.7089C196.369 88.7416 186.887 92.1544 174.536 92.1544C166.832 92.1544 160.015 90.7243 154.111 87.8608C148.21 84.9993 143.606 80.9696 140.365 75.8259C137.126 70.6852 135.497 64.8936 135.497 58.5084C135.497 52.0432 137.095 46.251 140.307 41.135C143.511 36.0326 147.904 32.0603 153.46 29.2233ZM172.127 27.1388C165.542 27.1388 159.664 28.4826 154.443 31.1486C149.22 33.8155 145.126 37.5258 142.138 42.2846C139.158 47.0299 137.659 52.4178 137.659 58.5084C137.659 64.5072 139.184 69.8955 142.194 74.6734C145.203 79.4483 149.487 83.2159 155.054 85.9157C160.617 88.6135 167.102 89.9927 174.536 89.9927C186.025 89.9927 194.607 86.9516 200.44 81.0021L188.305 68.7652C186.314 70.2073 184.416 71.2545 182.651 71.9063C180.63 72.6522 178.172 73.0052 175.338 73.0052C171.988 73.0052 169.121 72.3471 166.764 70.9647C164.397 69.5763 162.719 67.5758 161.716 64.9746L161.149 63.5048H205.285C205.473 60.4563 205.564 58.8055 205.564 58.5084C205.564 51.8836 204.056 46.2439 201.087 41.5428C198.098 36.8385 194.094 33.25 189.032 30.8161C183.945 28.3697 178.316 27.1388 172.127 27.1388ZM172.357 44.7974C169.891 44.7974 167.916 45.4562 166.399 46.7244C165.153 47.7664 164.229 49.1767 163.657 51.0063H181.048C180.476 49.2317 179.556 47.8398 178.307 46.7751C176.786 45.4791 174.813 44.7974 172.357 44.7974ZM162.265 52.0871V53.168H183.778L183.506 51.8662C182.92 49.0597 181.667 46.7987 179.709 45.1299C177.732 43.4445 175.233 42.6356 172.357 42.6356C169.49 42.6356 166.993 43.4102 165.012 45.0659C163.041 46.7138 161.79 49.0132 161.206 51.8708L162.265 52.0871Z" fill="url(#paint2_linear)"/>
<path fill-rule="evenodd" clip-rule="evenodd" d="M228.343 29.2233C233.901 26.3853 240.121 24.9771 247.01 24.9771C253.493 24.9771 259.447 26.2688 264.852 28.8678C270.282 31.479 274.592 35.3432 277.795 40.3849L277.797 40.3873C281.02 45.4899 282.608 51.5458 282.608 58.5084C282.608 58.9253 282.49 61.0125 282.262 64.6531L282.199 65.6666H239.312C240.138 67.1054 241.274 68.2399 242.741 69.1C244.684 70.2403 247.149 70.8435 250.221 70.8435C252.892 70.8435 255.078 70.5085 256.784 69.8784C258.521 69.2371 260.491 68.1236 262.637 66.4797L263.392 65.9012L278.315 80.9495L277.626 81.7089C271.252 88.7416 261.769 92.1544 249.418 92.1544C241.715 92.1544 234.898 90.7243 228.993 87.8608C223.093 84.9993 218.489 80.9696 215.248 75.8259C212.009 70.6852 210.38 64.8936 210.38 58.5084C210.38 52.0432 211.977 46.251 215.19 41.135C218.394 36.0326 222.786 32.0603 228.343 29.2233ZM247.01 27.1388C240.425 27.1388 234.547 28.4826 229.326 31.1486C224.102 33.8155 220.009 37.5258 217.02 42.2846C214.041 47.0299 212.542 52.4178 212.542 58.5084C212.542 64.5072 214.066 69.8955 217.077 74.6734C220.086 79.4483 224.369 83.2159 229.936 85.9157C235.499 88.6135 241.984 89.9927 249.418 89.9927C260.908 89.9927 269.489 86.9516 275.322 81.0021L263.187 68.7652C261.197 70.2073 259.299 71.2545 257.533 71.9063C255.513 72.6522 253.054 73.0052 250.221 73.0052C246.871 73.0052 244.003 72.3471 241.647 70.9647C239.28 69.5763 237.601 67.5758 236.598 64.9746L236.031 63.5048H280.167C280.356 60.4563 280.446 58.8055 280.446 58.5084C280.446 51.8836 278.939 46.2439 275.97 41.5428C272.981 36.8385 268.977 33.25 263.915 30.8161C258.827 28.3697 253.198 27.1388 247.01 27.1388ZM247.239 44.7974C244.773 44.7974 242.799 45.4562 241.282 46.7244C240.035 47.7664 239.111 49.1767 238.539 51.0063H255.931C255.359 49.2317 254.438 47.8398 253.189 46.7751C251.669 45.4791 249.695 44.7974 247.239 44.7974ZM237.148 52.0871V53.168H258.661L258.389 51.8662C257.803 49.0597 256.55 46.7987 254.592 45.1299C252.614 43.4445 250.116 42.6356 247.239 42.6356C244.373 42.6356 241.876 43.4102 239.895 45.0659C237.924 46.7138 236.673 49.0132 236.089 51.8708L237.148 52.0871Z" fill="url(#paint3_linear)"/>
<path fill-rule="evenodd" clip-rule="evenodd" d="M315.406 30.6108C319.981 26.8411 325.553 24.9771 332.099 24.9771C336.448 24.9771 340.393 25.7764 343.912 27.4304C347.037 28.8992 349.665 31.0307 351.791 33.8295C354.235 31.147 357.125 29.0487 360.434 27.5398C364.169 25.8369 368.28 24.9771 372.694 24.9771C380.506 24.9771 386.849 27.413 391.642 32.2954L391.644 32.2978C396.472 37.2471 398.774 44.5919 398.774 54.1511V91.0078H370.696V58.6231C370.696 55.1068 370.122 52.6611 369.125 51.1238C368.181 49.6681 366.792 48.9254 364.782 48.9254C362.656 48.9254 360.992 49.7066 359.715 51.2781C358.456 52.8271 357.721 55.4202 357.721 59.3111V91.0078H329.642V58.6231C329.642 55.1068 329.069 52.6611 328.071 51.1238C327.127 49.6681 325.739 48.9254 323.728 48.9254C321.603 48.9254 319.938 49.7066 318.661 51.2781C317.402 52.8271 316.667 55.4202 316.667 59.3111V91.0078H288.589V26.1237H315.406V30.6108ZM332.099 27.1388C325.162 27.1388 319.54 29.3662 315.089 33.8169L313.244 35.6619V28.2855H290.75V88.846H314.505V59.3111C314.505 55.2327 315.26 52.0351 316.983 49.9148C318.688 47.817 320.98 46.7636 323.728 46.7636C326.39 46.7636 328.5 47.8125 329.885 49.9473C331.217 52.0005 331.804 54.9441 331.804 58.6231V88.846H355.559V59.3111C355.559 55.2327 356.314 52.0351 358.037 49.9148C359.742 47.817 362.033 46.7636 364.782 46.7636C367.444 46.7636 369.553 47.8125 370.938 49.9473C372.27 52.0005 372.858 54.9441 372.858 58.6231V88.846H396.613V54.1511C396.613 44.906 394.385 38.2045 390.098 33.8085C385.774 29.4038 380.019 27.1388 372.694 27.1388C368.566 27.1388 364.764 27.9416 361.331 29.5067C357.897 31.0725 354.962 33.3218 352.544 36.2618L351.62 37.3849L350.811 36.1767C348.766 33.1237 346.163 30.8773 342.992 29.3868C339.803 27.8875 336.179 27.1388 332.099 27.1388Z" fill="url(#paint4_linear)"/>
<path fill-rule="evenodd" clip-rule="evenodd" d="M423.989 29.2181C429.689 26.3828 436.107 24.9771 443.219 24.9771C450.387 24.9771 456.862 26.3819 462.565 29.2181C468.263 32.0524 472.748 36.0245 475.957 41.135C479.17 46.251 480.767 52.0432 480.767 58.5084C480.767 64.9737 479.17 70.7658 475.957 75.8818C472.749 80.9902 468.267 84.9906 462.569 87.8541C456.867 90.7196 450.39 92.1544 443.219 92.1544C436.104 92.1544 429.685 90.7187 423.985 87.8541C418.289 84.9915 413.778 80.9927 410.541 75.8856C407.3 70.7706 405.672 64.9775 405.672 58.5084C405.672 52.0393 407.3 46.2462 410.541 41.1312C413.78 36.022 418.292 32.0515 423.989 29.2181ZM443.219 27.1388C436.398 27.1388 430.317 28.4851 424.951 31.1537C419.582 33.8243 415.379 37.5364 412.367 42.2884C409.359 47.0348 407.834 52.4216 407.834 58.5084C407.834 64.5953 409.359 69.982 412.367 74.7284C415.38 79.4825 419.585 83.2237 424.955 85.9225C430.321 88.6191 436.402 89.9927 443.219 89.9927C450.096 89.9927 456.234 88.6182 461.598 85.9225C466.966 83.2247 471.142 79.485 474.126 74.7322C477.106 69.9868 478.605 64.5991 478.605 58.5084C478.605 52.4178 477.106 47.03 474.126 42.2846C471.143 37.5339 466.97 33.8234 461.602 31.1537C456.238 28.486 450.1 27.1388 443.219 27.1388ZM443.219 47.32C440.531 47.32 438.393 48.2598 436.686 50.1699C434.998 52.0596 434.094 54.7782 434.094 58.5084C434.094 62.2388 434.998 64.9895 436.691 66.9096C438.402 68.8498 440.54 69.8115 443.219 69.8115C445.898 69.8115 448.037 68.8498 449.748 66.9096C451.441 64.9895 452.345 62.2388 452.345 58.5084C452.345 54.7782 451.441 52.0596 449.753 50.1699C448.046 48.2598 445.907 47.32 443.219 47.32ZM435.074 48.7297C437.209 46.3398 439.944 45.1583 443.219 45.1583C446.494 45.1583 449.229 46.3398 451.365 48.7297C453.518 51.1399 454.506 54.4413 454.506 58.5084C454.506 62.5753 453.518 65.9019 451.369 68.3392C449.238 70.7563 446.503 71.9732 443.219 71.9732C439.935 71.9732 437.2 70.7563 435.069 68.3392C432.921 65.9019 431.932 62.5753 431.932 58.5084C431.932 54.4413 432.921 51.1399 435.074 48.7297Z" fill="url(#paint5_linear)"/>
<path fill-rule="evenodd" clip-rule="evenodd" d="M501.738 29.2181C507.439 26.3828 513.857 24.9771 520.969 24.9771C528.136 24.9771 534.612 26.3819 540.314 29.2181C546.013 32.0524 550.498 36.0245 553.707 41.135C556.919 46.251 558.517 52.0432 558.517 58.5084C558.517 64.9737 556.919 70.7658 553.707 75.8818C550.499 80.9902 546.016 84.9906 540.318 87.8541C534.616 90.7196 528.14 92.1544 520.969 92.1544C513.854 92.1544 507.434 90.7187 501.734 87.8541C496.038 84.9915 491.528 80.9927 488.291 75.8856C485.049 70.7706 483.421 64.9775 483.421 58.5084C483.421 52.0393 485.049 46.2462 488.291 41.1312C491.529 36.022 496.042 32.0515 501.738 29.2181ZM520.969 27.1388C514.148 27.1388 508.066 28.4851 502.701 31.1537C497.331 33.8243 493.129 37.5364 490.117 42.2884C487.109 47.0348 485.583 52.4216 485.583 58.5084C485.583 64.5953 487.109 69.982 490.117 74.7284C493.13 79.4825 497.335 83.2237 502.705 85.9225C508.071 88.6191 514.151 89.9927 520.969 89.9927C527.846 89.9927 533.984 88.6182 539.348 85.9225C544.716 83.2247 548.891 79.485 551.876 74.7322C554.856 69.9868 556.355 64.5991 556.355 58.5084C556.355 52.4178 554.856 47.0299 551.876 42.2846C548.893 37.5339 544.719 33.8234 539.352 31.1537C533.988 28.486 527.85 27.1388 520.969 27.1388ZM520.969 47.32C518.281 47.32 516.142 48.2598 514.436 50.1699C512.748 52.0596 511.844 54.7782 511.844 58.5084C511.844 62.2388 512.748 64.9895 514.441 66.9096C516.151 68.8498 518.29 69.8115 520.969 69.8115C523.648 69.8115 525.787 68.8498 527.497 66.9096C529.19 64.9895 530.094 62.2388 530.094 58.5084C530.094 54.7782 529.19 52.0596 527.502 50.1699C525.796 48.2598 523.657 47.32 520.969 47.32ZM512.824 48.7297C514.959 46.3398 517.694 45.1583 520.969 45.1583C524.244 45.1583 526.979 46.3398 529.114 48.7297C531.268 51.1399 532.256 54.4413 532.256 58.5084C532.256 62.5753 531.268 65.9019 529.119 68.3392C526.988 70.7563 524.253 71.9732 520.969 71.9732C517.685 71.9732 514.95 70.7563 512.819 68.3392C510.67 65.9019 509.682 62.5753 509.682 58.5084C509.682 54.4413 510.67 51.1399 512.824 48.7297Z" fill="url(#paint6_linear)"/>
<path fill-rule="evenodd" clip-rule="evenodd" d="M598.331 26.8835C601.679 25.5984 605.281 24.9771 609.154 24.9771C617.099 24.9771 623.612 27.3777 628.551 32.2859C633.529 37.2333 635.922 44.5819 635.922 54.1511V91.0078H607.844V58.6231C607.844 55.1201 607.217 52.6917 606.127 51.1628C605.086 49.702 603.524 48.9254 601.242 48.9254C598.629 48.9254 596.582 49.8156 594.998 51.6005C593.447 53.3476 592.575 56.2117 592.575 60.4578V91.0078H564.497V26.1237H591.314V30.9573C593.415 29.229 595.76 27.8705 598.331 26.8835ZM609.154 27.1388C605.516 27.1388 602.18 27.7215 599.106 28.9017C596.035 30.0806 593.326 31.8323 590.997 34.1609L589.152 36.0059V28.2855H566.659V88.846H590.413V60.4578C590.413 55.9892 591.319 52.4893 593.381 50.1657C595.409 47.88 598.064 46.7636 601.242 46.7636C604.091 46.7636 606.37 47.7786 607.888 49.9083C609.357 51.9699 610.006 54.9308 610.006 58.6231V88.846H633.761V54.1511C633.761 44.9152 631.452 38.2171 627.027 33.8192C622.562 29.3822 616.633 27.1388 609.154 27.1388Z" fill="url(#paint7_linear)"/>
<path d="M33.5997 26.0578V39.8177H67.0848V60.2283H33.5997V85.9134H6.53638V5.64722H71.7865V26.0578H33.5997Z" fill="#FFFEFD"/>
<path d="M123.39 22.0444V44.9776C121.326 44.6623 119.405 44.519 117.656 44.519C108.798 44.519 104.354 49.0196 104.354 58.0496V85.9134H78.4375V23.1911H103.093V29.9564C107.68 24.6817 114.446 22.0444 123.39 22.0444Z" fill="#FFFEFD"/>
<path d="M196.553 60.5722H152.976C153.894 62.9515 155.413 64.7575 157.563 66.0189C159.714 67.2802 162.38 67.9109 165.591 67.9109C168.343 67.9109 170.665 67.5669 172.529 66.8789C174.392 66.1909 176.456 65.0156 178.664 63.3242L192.195 76.9695C186.089 83.7061 176.944 87.06 164.788 87.06C157.219 87.06 150.568 85.6554 144.835 82.8748C139.101 80.0941 134.657 76.1955 131.532 71.2361C128.407 66.2768 126.831 60.6869 126.831 54.4949C126.831 48.217 128.379 42.627 131.475 37.6963C134.571 32.7657 138.814 28.9244 144.204 26.1724C149.594 23.4204 155.643 22.0444 162.38 22.0444C168.716 22.0444 174.507 23.3058 179.753 25.8284C185 28.3511 189.156 32.049 192.253 36.951C195.349 41.853 196.897 47.701 196.897 54.4949C196.897 54.8676 196.782 56.9029 196.553 60.5722ZM155.958 41.8817C154.209 43.3437 153.062 45.4076 152.518 48.0736H172.701C172.156 45.465 171.009 43.4297 169.26 41.939C167.512 40.4483 165.275 39.703 162.609 39.703C159.914 39.703 157.707 40.4197 155.958 41.8817Z" fill="#FFFEFD"/>
<path d="M271.436 60.5722H227.859C228.776 62.9515 230.296 64.7575 232.446 66.0189C234.596 67.2802 237.262 67.9109 240.473 67.9109C243.226 67.9109 245.548 67.5669 247.411 66.8789C249.275 66.1909 251.339 65.0156 253.546 63.3242L267.078 76.9695C260.972 83.7061 251.826 87.06 239.671 87.06C232.102 87.06 225.451 85.6554 219.717 82.8748C213.983 80.0941 209.54 76.1955 206.415 71.2361C203.29 66.2768 201.713 60.6869 201.713 54.4949C201.713 48.217 203.261 42.627 206.357 37.6963C209.454 32.7657 213.697 28.9244 219.086 26.1724C224.476 23.4204 230.525 22.0444 237.262 22.0444C243.598 22.0444 249.389 23.3058 254.636 25.8284C259.882 28.3511 264.039 32.049 267.135 36.951C270.232 41.853 271.78 47.701 271.78 54.4949C271.78 54.8676 271.665 56.9029 271.436 60.5722ZM230.841 41.8817C229.092 43.3437 227.945 45.4076 227.4 48.0736H247.583C247.038 45.465 245.892 43.4297 244.143 41.939C242.394 40.4483 240.158 39.703 237.492 39.703C234.797 39.703 232.589 40.4197 230.841 41.8817Z" fill="#FFFEFD"/>
<path d="M381.123 29.0391C385.681 33.7117 387.946 40.735 387.946 50.1376V85.9134H362.029V54.6096C362.029 47.4143 359.707 43.831 355.034 43.831C352.597 43.831 350.619 44.7483 349.128 46.583C347.637 48.4176 346.892 51.313 346.892 55.2976V85.9134H320.976V54.6096C320.976 47.4143 318.653 43.831 313.98 43.831C311.544 43.831 309.565 44.7483 308.075 46.583C306.584 48.4176 305.838 51.313 305.838 55.2976V85.9134H279.922V23.1911H304.577V29.0391C309.25 24.3664 315.156 22.0444 322.352 22.0444C326.566 22.0444 330.35 22.8185 333.704 24.3951C337.059 25.9718 339.811 28.3511 341.961 31.5617C344.484 28.4944 347.551 26.1437 351.135 24.5097C354.719 22.8758 358.675 22.0444 362.947 22.0444C370.515 22.0444 376.564 24.3664 381.123 29.0391Z" fill="#FFFEFD"/>
<path d="M414.722 82.8748C409.189 80.0941 404.831 76.2241 401.707 71.2935C398.582 66.3628 397.005 60.7729 397.005 54.4949C397.005 48.217 398.582 42.627 401.707 37.6963C404.831 32.7657 409.189 28.9244 414.722 26.1724C420.255 23.4204 426.505 22.0444 433.472 22.0444C440.495 22.0444 446.803 23.4204 452.336 26.1724C457.869 28.9244 462.198 32.7657 465.294 37.6963C468.39 42.627 469.938 48.217 469.938 54.4949C469.938 60.7729 468.39 66.3628 465.294 71.2935C462.198 76.2241 457.869 80.0941 452.336 82.8748C446.803 85.6554 440.495 87.06 433.472 87.06C426.505 87.06 420.255 85.6554 414.722 82.8748ZM440.811 63.6109C442.732 61.4322 443.678 58.3936 443.678 54.4949C443.678 50.5963 442.732 47.5863 440.811 45.4363C438.89 43.2863 436.453 42.2257 433.472 42.2257C430.49 42.2257 428.053 43.2863 426.132 45.4363C424.212 47.5863 423.266 50.5963 423.266 54.4949C423.266 58.3936 424.212 61.4322 426.132 63.6109C428.053 65.7896 430.49 66.8789 433.472 66.8789C436.453 66.8789 438.89 65.7896 440.811 63.6109Z" fill="#FFFEFD"/>
<path d="M492.472 82.8748C486.939 80.0941 482.581 76.2241 479.456 71.2935C476.331 66.3628 474.755 60.7729 474.755 54.4949C474.755 48.217 476.331 42.627 479.456 37.6963C482.581 32.7657 486.939 28.9244 492.472 26.1724C498.005 23.4204 504.255 22.0444 511.221 22.0444C518.245 22.0444 524.552 23.4204 530.085 26.1724C535.618 28.9244 539.947 32.7657 543.044 37.6963C546.14 42.627 547.688 48.217 547.688 54.4949C547.688 60.7729 546.14 66.3628 543.044 71.2935C539.947 76.2241 535.618 80.0941 530.085 82.8748C524.552 85.6554 518.245 87.06 511.221 87.06C504.255 87.06 498.005 85.6554 492.472 82.8748ZM518.561 63.6109C520.481 61.4322 521.427 58.3936 521.427 54.4949C521.427 50.5963 520.481 47.5863 518.561 45.4363C516.64 43.2863 514.203 42.2257 511.221 42.2257C508.24 42.2257 505.803 43.2863 503.882 45.4363C501.961 47.5863 501.015 50.5963 501.015 54.4949C501.015 58.3936 501.961 61.4322 503.882 63.6109C505.803 65.7896 508.24 66.8789 511.221 66.8789C514.203 66.8789 516.64 65.7896 518.561 63.6109Z" fill="#FFFEFD"/>
<path d="M618.041 29.0391C622.743 33.7117 625.093 40.735 625.093 50.1376V85.9134H599.177V54.6096C599.177 47.4143 596.625 43.831 591.494 43.831C588.598 43.831 586.247 44.8343 584.441 46.8696C582.635 48.9049 581.746 52.087 581.746 56.4443V85.9134H555.83V23.1911H580.485V29.3831C582.922 26.9464 585.76 25.1118 588.971 23.8791C592.182 22.6464 595.651 22.0444 599.406 22.0444C607.118 22.0444 613.339 24.3664 618.041 29.0391Z" fill="#FFFEFD"/>
<defs>
<linearGradient id="paint0_linear" x1="14.995" y1="49.7984" x2="82.8255" y2="49.7984" gradientUnits="userSpaceOnUse">
<stop stop-color="#3B6AFF"/>
<stop offset="0.5" stop-color="#D483FB"/>
<stop offset="1" stop-color="#E21485"/>
</linearGradient>
<linearGradient id="paint1_linear" x1="86.8967" y1="57.997" x2="134.43" y2="57.997" gradientUnits="userSpaceOnUse">
<stop stop-color="#3B6AFF"/>
<stop offset="0.5" stop-color="#D483FB"/>
<stop offset="1" stop-color="#E21485"/>
</linearGradient>
<linearGradient id="paint2_linear" x1="135.29" y1="58.5704" x2="207.937" y2="58.5704" gradientUnits="userSpaceOnUse">
<stop stop-color="#3B6AFF"/>
<stop offset="0.5" stop-color="#D483FB"/>
<stop offset="1" stop-color="#E21485"/>
</linearGradient>
<linearGradient id="paint3_linear" x1="210.173" y1="58.5704" x2="282.819" y2="58.5704" gradientUnits="userSpaceOnUse">
<stop stop-color="#3B6AFF"/>
<stop offset="0.5" stop-color="#D483FB"/>
<stop offset="1" stop-color="#E21485"/>
</linearGradient>
<linearGradient id="paint4_linear" x1="288.381" y1="57.997" x2="398.985" y2="57.997" gradientUnits="userSpaceOnUse">
<stop stop-color="#3B6AFF"/>
<stop offset="0.5" stop-color="#D483FB"/>
<stop offset="1" stop-color="#E21485"/>
</linearGradient>
<linearGradient id="paint5_linear" x1="405.463" y1="58.5704" x2="480.976" y2="58.5704" gradientUnits="userSpaceOnUse">
<stop stop-color="#3B6AFF"/>
<stop offset="0.5" stop-color="#D483FB"/>
<stop offset="1" stop-color="#E21485"/>
</linearGradient>
<linearGradient id="paint6_linear" x1="483.212" y1="58.5704" x2="558.726" y2="58.5704" gradientUnits="userSpaceOnUse">
<stop stop-color="#3B6AFF"/>
<stop offset="0.5" stop-color="#D483FB"/>
<stop offset="1" stop-color="#E21485"/>
</linearGradient>
<linearGradient id="paint7_linear" x1="564.287" y1="57.997" x2="636.13" y2="57.997" gradientUnits="userSpaceOnUse">
<stop stop-color="#3B6AFF"/>
<stop offset="0.5" stop-color="#D483FB"/>
<stop offset="1" stop-color="#E21485"/>
</linearGradient>
</defs>
</svg>
