<svg width="256" height="55" viewBox="0 0 256 55" fill="none" xmlns="http://www.w3.org/2000/svg">
<path d="M27.5022 55C42.6912 55 55.0043 42.6878 55.0043 27.5C55.0043 12.3122 42.6912 0 27.5022 0C12.3131 0 0 12.3122 0 27.5C0 42.6878 12.3131 55 27.5022 55Z" fill="url(#paint0_linear)"/>
<path opacity="0.35" d="M54.9961 26.8648C54.9961 26.816 54.9961 26.759 54.9961 26.7101C54.988 26.5065 54.9798 26.2948 54.9717 26.0912V26.0831C54.9636 25.8713 54.9473 25.6677 54.931 25.4642C54.931 25.4153 54.9228 25.3583 54.9228 25.3094C54.9065 25.1059 54.8903 24.9023 54.8658 24.7068C54.8658 24.6987 54.8658 24.6987 54.8658 24.6906C54.8414 24.487 54.8251 24.2834 54.7925 24.0798C54.7844 24.0309 54.7762 23.9739 54.7762 23.9251C54.7518 23.7296 54.7192 23.5261 54.6948 23.3306C54.6948 23.3225 54.6948 23.3225 54.6948 23.3143C54.6622 23.1107 54.6297 22.9153 54.5971 22.7117C54.5889 22.6629 54.5808 22.614 54.5726 22.557C54.5401 22.3616 54.4993 22.1743 54.4586 21.9788C54.4586 21.9707 54.4586 21.9625 54.4505 21.9544C54.4098 21.759 54.369 21.5554 54.3202 21.3599C54.312 21.3111 54.2957 21.2622 54.2876 21.2134C54.2469 21.0261 54.198 20.8388 54.1492 20.6515C54.1492 20.6433 54.141 20.6352 54.141 20.627C54.0922 20.4316 54.0351 20.2362 53.9863 20.0489C53.97 20 53.9618 19.9511 53.9456 19.9023C53.8967 19.715 53.8397 19.5358 53.7827 19.3567C53.7827 19.3485 53.7745 19.3322 53.7745 19.3241C53.7175 19.1368 53.6524 18.9414 53.5872 18.7541C53.5709 18.7052 53.5546 18.6564 53.5384 18.6156C53.4814 18.4365 53.4162 18.2573 53.351 18.0863C53.3429 18.0782 53.3429 18.0619 53.3348 18.0537C53.2696 17.8664 53.1963 17.6792 53.123 17.5C53.1067 17.4511 53.0904 17.4104 53.066 17.3616C53.0009 17.1906 52.9276 17.0195 52.8543 16.8485C52.8461 16.8323 52.8461 16.8241 52.838 16.8078C52.7647 16.6287 52.6832 16.4495 52.6018 16.2622C52.5855 16.2134 52.5611 16.1726 52.5367 16.1238C52.4634 15.9528 52.3819 15.7899 52.3005 15.627C52.2923 15.6108 52.2842 15.6026 52.2842 15.5863C52.2028 15.4072 52.1132 15.2362 52.0236 15.057C51.9992 15.0163 51.9747 14.9674 51.9584 14.9267C51.877 14.7638 51.7874 14.601 51.706 14.4463C51.6978 14.43 51.6897 14.4137 51.6815 14.4055C51.592 14.2345 51.4942 14.0635 51.3965 13.8925C51.3721 13.8518 51.3476 13.8111 51.3232 13.7622C51.2336 13.6075 51.144 13.4609 51.0545 13.3062C49.2384 10.342 55.4033 23.8437 40.4592 38.7785C22.5099 56.7101 7.90773 46.873 9.77269 48.5179C10.0089 48.7215 10.2532 48.9169 10.4975 49.1124C10.5545 49.1531 10.6034 49.1938 10.6604 49.2345C10.7744 49.3241 10.8803 49.4055 10.9943 49.487C11.0594 49.5358 11.1246 49.5847 11.1897 49.6335C11.2956 49.7068 11.3933 49.7883 11.4992 49.8616C11.5644 49.9104 11.6377 49.9593 11.7028 50.0081C11.8087 50.0814 11.9064 50.1547 12.0123 50.2199C12.0856 50.2687 12.1507 50.3176 12.224 50.3583C12.3299 50.4316 12.4358 50.4967 12.5498 50.57C12.6149 50.6107 12.6882 50.6596 12.7534 50.7003C12.8755 50.7736 12.9896 50.8469 13.1117 50.9202C13.1687 50.9528 13.2257 50.9935 13.2827 51.0261C13.4619 51.1319 13.6411 51.2378 13.8202 51.3436C13.8202 51.3436 13.8202 51.3436 13.8284 51.3436C14.0076 51.4495 14.1867 51.5472 14.374 51.645C14.431 51.6775 14.4962 51.7101 14.5532 51.7427C14.6754 51.8078 14.8057 51.873 14.9278 51.9381C15.0011 51.9788 15.0744 52.0114 15.1477 52.044C15.2617 52.101 15.3757 52.158 15.4979 52.215C15.5712 52.2557 15.6526 52.2883 15.7259 52.329C15.8399 52.386 15.954 52.4348 16.068 52.4919C16.1413 52.5244 16.2227 52.5651 16.296 52.5977C16.4182 52.6547 16.5322 52.7036 16.6543 52.7524C16.7276 52.785 16.8009 52.8176 16.8742 52.8502C17.0045 52.9072 17.1348 52.956 17.2651 53.013C17.3303 53.0374 17.3954 53.0619 17.4606 53.0944C17.6561 53.1677 17.8515 53.2492 18.0551 53.3225C18.2506 53.3958 18.4542 53.4609 18.6496 53.5342C18.7148 53.5586 18.7799 53.5749 18.8451 53.5993C18.9835 53.6482 19.1138 53.6889 19.2523 53.7296C19.3337 53.7541 19.407 53.7785 19.4884 53.8029C19.6106 53.8437 19.7409 53.8762 19.8631 53.9169C19.9445 53.9414 20.0259 53.9658 20.1155 53.9902C20.2377 54.0228 20.368 54.0554 20.4902 54.088C20.5716 54.1124 20.6612 54.1287 20.7426 54.1531C20.8729 54.1857 21.0032 54.2182 21.1254 54.2508C21.2068 54.2671 21.2883 54.2915 21.3697 54.3078C21.5082 54.3404 21.6547 54.373 21.7932 54.3974C21.8583 54.4137 21.9316 54.43 21.9968 54.4381C22.4203 54.5277 22.8438 54.601 23.2754 54.6661C23.3487 54.6743 23.4138 54.6824 23.4871 54.6987C23.6337 54.7231 23.7803 54.7394 23.9269 54.7557C24.0083 54.7638 24.0979 54.7801 24.1794 54.7883C24.3097 54.8046 24.4481 54.8208 24.5784 54.8371C24.668 54.8453 24.7576 54.8534 24.839 54.8616C24.9693 54.8779 25.0996 54.886 25.2381 54.8941C25.3277 54.9023 25.4173 54.9104 25.5068 54.9186C25.6453 54.9267 25.7756 54.9349 25.914 54.943C25.9955 54.9511 26.0851 54.9511 26.1665 54.9593C26.3131 54.9674 26.4678 54.9756 26.6144 54.9756C26.6877 54.9756 26.761 54.9837 26.8343 54.9837C27.0542 54.9919 27.2822 54.9918 27.5021 54.9918C42.6906 54.9918 55.0043 42.6791 55.0043 27.4919C55.0043 27.2883 55.0043 27.0766 54.9961 26.8648Z" fill="white"/>
<path opacity="0.44" d="M27.5022 0C12.3137 0 0 12.3127 0 27.5C0 34.3974 2.54091 40.6922 6.72691 45.5212C12.1671 44.4218 17.7294 43.5179 22.1597 37.5814C26.4353 31.8567 16.3449 25.4967 24.6518 15.0326C27.8442 11.0098 37.1202 3.52606 38.6105 2.33713C35.2145 0.838759 31.452 0 27.5022 0Z" fill="#761FFF"/>
<path opacity="0.53" d="M26.4597 0.0244141C11.7517 0.570017 0 12.6629 0 27.5C0 32.8502 1.53106 37.842 4.17785 42.0684C4.47104 41.6042 4.75607 41.1075 5.03297 40.5782C8.54302 33.7703 4.43846 27.5814 7.95666 20.7817C12.6313 11.7345 22.3389 15.7003 27.4289 6.67752C28.6749 4.45439 27.4452 2.45927 26.4597 0.0244141Z" fill="#5FE0ED"/>
<path opacity="0.19" d="M55.0044 27.5001C55.0044 27.2883 55.0044 27.0766 54.9963 26.8649C54.9963 26.8242 54.9963 26.7916 54.9963 26.7509C54.9881 26.5473 54.98 26.3437 54.9718 26.1401C54.9718 26.0994 54.9637 26.0587 54.9637 26.018C54.9556 25.8062 54.9393 25.6027 54.923 25.3909C54.923 25.3828 54.923 25.3747 54.923 25.3584C54.9067 25.1548 54.8904 24.9593 54.866 24.7558C54.866 24.715 54.8578 24.6825 54.8578 24.6417C54.8334 24.4463 54.8171 24.2427 54.7927 24.0473C54.7845 24.0066 54.7845 23.9658 54.7764 23.9251C54.752 23.7215 54.7194 23.5261 54.695 23.3225C54.695 23.3062 54.6868 23.29 54.6868 23.2655C54.6542 23.0782 54.6298 22.8828 54.5891 22.6955C54.5809 22.6629 54.5809 22.6222 54.5728 22.5896C54.5402 22.3942 54.4995 22.2069 54.4588 22.0115C54.4506 21.9707 54.4425 21.9219 54.4343 21.8812C54.3936 21.6857 54.3529 21.4984 54.3122 21.303C54.304 21.2786 54.2959 21.2541 54.2959 21.2216C54.2552 21.0424 54.2145 20.8632 54.1656 20.6841C54.1574 20.6515 54.1493 20.6108 54.1412 20.5782C54.0923 20.3909 54.0434 20.2036 53.9946 20.0245C53.9783 19.9756 53.9701 19.9349 53.9539 19.886C53.905 19.6987 53.848 19.5196 53.791 19.3323C53.7828 19.2997 53.7665 19.2672 53.7584 19.2346C53.7095 19.0717 53.6525 18.9007 53.5955 18.7378C53.5874 18.7053 53.5711 18.6645 53.5629 18.632C53.5059 18.4528 53.4408 18.2737 53.3756 18.1027C53.3593 18.0538 53.3431 18.0049 53.3268 17.9642C53.2616 17.7932 53.1965 17.6141 53.1313 17.443C53.115 17.4023 53.0987 17.3616 53.0825 17.3209C53.0173 17.1662 52.9603 17.0115 52.8951 16.8567C52.8788 16.8242 52.8626 16.7834 52.8463 16.7509C52.773 16.5799 52.6997 16.417 52.6264 16.246C52.602 16.1971 52.5775 16.1483 52.5612 16.0994C52.4879 15.9365 52.4146 15.7737 52.3332 15.6108C52.3088 15.5619 52.2925 15.5212 52.2681 15.4724C52.1948 15.3339 52.1296 15.1873 52.0563 15.0489C52.04 15.0082 52.0156 14.9756 51.9993 14.9349C51.9179 14.772 51.8364 14.6173 51.7468 14.4626C51.7224 14.4137 51.6898 14.3567 51.6654 14.3079C51.584 14.1531 51.4944 14.0066 51.4129 13.8518C51.3804 13.803 51.3559 13.7541 51.3233 13.7053C51.2501 13.575 51.1686 13.4447 51.0953 13.3144C51.0627 13.2655 51.0383 13.2167 51.0057 13.1678C50.9243 13.0294 50.8347 12.8909 50.7533 12.7606C50.7207 12.7036 50.6881 12.6548 50.6474 12.5978C50.5578 12.4593 50.4601 12.3128 50.3705 12.1743C50.3379 12.1173 50.2972 12.0685 50.2646 12.0115C50.1832 11.8893 50.1018 11.7753 50.0203 11.6532C49.9796 11.5961 49.9389 11.5391 49.8982 11.474C49.8167 11.36 49.7271 11.2378 49.6457 11.1238C49.605 11.0668 49.5643 11.018 49.5235 10.961C49.4258 10.8307 49.3281 10.7004 49.2222 10.5701C49.1815 10.5131 49.1326 10.4561 49.0919 10.4072C49.0023 10.3014 48.9209 10.1873 48.8313 10.0815C48.7824 10.0163 48.7254 9.9512 48.6684 9.88605C48.587 9.78833 48.4974 9.68246 48.416 9.58474C48.3671 9.52774 48.3264 9.47888 48.2775 9.42188C48.1716 9.29973 48.0658 9.17758 47.9599 9.06357C47.911 9.00657 47.8622 8.94956 47.8052 8.9007C47.7156 8.80298 47.6178 8.69712 47.5283 8.5994C47.4631 8.53426 47.4061 8.46911 47.341 8.40396C47.2595 8.31439 47.1699 8.22481 47.0803 8.14338C47.0315 8.09452 46.9745 8.03752 46.9256 7.98866C46.8116 7.87465 46.6976 7.76879 46.5836 7.65478C46.5266 7.59778 46.4696 7.54892 46.4125 7.49191C46.3148 7.39419 46.2089 7.30462 46.1112 7.2069C46.0461 7.14175 45.9728 7.08474 45.9076 7.02774C45.818 6.94631 45.7366 6.87302 45.647 6.79159C45.59 6.74273 45.533 6.69387 45.476 6.64501C45.3538 6.53914 45.2398 6.44143 45.1176 6.34371C45.0525 6.29485 44.9955 6.23784 44.9303 6.18898C44.8163 6.09941 44.7023 6.00169 44.5883 5.91211C44.5231 5.86325 44.458 5.80624 44.3847 5.75738C44.2951 5.68409 44.1974 5.61895 44.1078 5.54566C44.0508 5.4968 43.9856 5.45609 43.9286 5.40723C41.7135 6.64501 38.8387 8.79484 36.3792 12.3942C30.54 20.9202 35.3775 30.2118 29.522 38.7134C24.0655 46.6369 16.0763 45.3583 8.91772 47.7199C9.06432 47.8583 9.21091 47.9887 9.3575 48.1189C9.36564 48.1271 9.37379 48.1352 9.39007 48.1434C9.53666 48.2655 9.67511 48.3958 9.8217 48.518C9.83799 48.5342 9.85428 48.5424 9.87057 48.5587C10.009 48.6808 10.1556 48.7948 10.2941 48.9088C10.3185 48.9251 10.3348 48.9414 10.3592 48.9577C10.4977 49.0717 10.6442 49.1776 10.7827 49.2916C10.8071 49.3079 10.8316 49.3323 10.856 49.3486C10.9944 49.4544 11.141 49.5603 11.2795 49.6662C11.3039 49.6825 11.3365 49.7069 11.3609 49.7232C11.5075 49.829 11.646 49.9268 11.7925 50.0326C11.817 50.0489 11.8496 50.0733 11.874 50.0896C12.0206 50.1873 12.1672 50.2932 12.3138 50.3909C12.3382 50.4072 12.3708 50.4316 12.3952 50.4479C12.5418 50.5456 12.6884 50.6434 12.8431 50.7329C12.8675 50.7492 12.9001 50.7655 12.9246 50.7818C13.0793 50.8795 13.234 50.9691 13.3888 51.0668C13.4132 51.0831 13.4295 51.0913 13.4539 51.1075C13.6168 51.2053 13.7715 51.2948 13.9344 51.3926C13.9507 51.4007 13.9588 51.4088 13.9751 51.417C15.0338 52.0196 16.1414 52.5489 17.2816 53.0049C17.306 53.0131 17.3386 53.0294 17.363 53.0375C17.5096 53.0945 17.6562 53.1515 17.8028 53.2085C17.8598 53.233 17.9168 53.2492 17.9738 53.2737C18.1041 53.3225 18.2426 53.3714 18.3729 53.4202C18.4462 53.4447 18.5195 53.4691 18.5928 53.4935C18.7231 53.5343 18.8452 53.575 18.9755 53.6238C19.057 53.6483 19.1384 53.6808 19.2198 53.7053C19.342 53.746 19.4642 53.7786 19.5863 53.8193C19.6759 53.8437 19.7655 53.8763 19.8551 53.9007C19.9772 53.9333 20.0912 53.9658 20.2134 53.9984C20.3111 54.0229 20.4007 54.0473 20.4984 54.0717C20.6125 54.1043 20.7346 54.1287 20.8486 54.1613C20.9464 54.1857 21.0441 54.2101 21.15 54.2346C21.264 54.259 21.378 54.2916 21.492 54.316C21.5979 54.3404 21.6956 54.3649 21.8015 54.3812C21.9155 54.4056 22.0295 54.43 22.1354 54.4545C22.2413 54.4789 22.3471 54.4952 22.4611 54.5196C22.5752 54.544 22.681 54.5603 22.795 54.5766C22.9091 54.5929 23.0149 54.6173 23.1289 54.6336C23.2348 54.6499 23.3488 54.6662 23.4547 54.6825C23.5687 54.6987 23.6827 54.715 23.7968 54.7313C23.9026 54.7476 24.0085 54.7639 24.1144 54.772C24.2365 54.7883 24.3505 54.7965 24.4727 54.8128C24.5786 54.8209 24.6844 54.8372 24.7822 54.8453C24.9043 54.8616 25.0346 54.8698 25.1568 54.8779C25.2545 54.886 25.3604 54.8942 25.4581 54.9023C25.5884 54.9105 25.7269 54.9186 25.8572 54.9268C25.9549 54.9349 26.0445 54.9431 26.1422 54.9431C26.2888 54.9512 26.4435 54.9512 26.5901 54.9593C26.6716 54.9593 26.7449 54.9675 26.8263 54.9675C27.0543 54.9756 27.2742 54.9756 27.5023 54.9756C27.5104 54.9756 27.5104 54.9756 27.5185 54.9756C27.7384 54.9756 27.9502 54.9756 28.1701 54.9675C28.2026 54.9675 28.2271 54.9675 28.2596 54.9675C28.4632 54.9593 28.6668 54.9512 28.8786 54.9431C28.9193 54.9431 28.9519 54.943 28.9926 54.9349C29.1962 54.9268 29.3998 54.9105 29.5953 54.8942C29.6278 54.8942 29.6685 54.886 29.7011 54.886C29.9047 54.8697 30.1165 54.8535 30.3201 54.829C30.3364 54.829 30.3608 54.8209 30.3771 54.8209C30.5807 54.7965 30.7843 54.7802 30.9879 54.7476C31.0042 54.7476 31.0204 54.7395 31.0449 54.7395C31.2485 54.715 31.4521 54.6825 31.6557 54.658C31.6883 54.6499 31.7208 54.6499 31.7534 54.6417C31.9489 54.6092 32.1443 54.5766 32.3398 54.544C32.3805 54.5359 32.4131 54.5277 32.4538 54.5277C32.6492 54.4952 32.8447 54.4545 33.0401 54.4137C33.0727 54.4056 33.0972 54.3974 33.1297 54.3974C33.3333 54.3567 33.5369 54.316 33.7324 54.2672C33.7405 54.2672 33.7487 54.2671 33.7568 54.259C33.9523 54.2101 34.1477 54.1613 34.3432 54.1124C34.3676 54.1043 34.4002 54.0961 34.4246 54.088C34.6119 54.0391 34.7992 53.9903 34.9947 53.9333C35.0354 53.9251 35.068 53.9088 35.1087 53.9007C35.296 53.8437 35.4752 53.7948 35.6625 53.7378C35.6951 53.7297 35.7358 53.7134 35.7684 53.7053C35.9557 53.6483 36.143 53.5831 36.3303 53.5261C36.3547 53.518 36.3792 53.5098 36.4036 53.5017C36.5828 53.4365 36.7701 53.3795 36.9493 53.3144C36.9655 53.3062 36.99 53.2981 37.0063 53.29C37.1936 53.2248 37.3727 53.1515 37.5519 53.0782C37.5845 53.0619 37.6252 53.0538 37.6578 53.0375C37.8369 52.9642 38.008 52.8991 38.179 52.8258C38.2197 52.8095 38.2523 52.7932 38.293 52.7769C38.464 52.7036 38.6351 52.6303 38.8142 52.5489C38.8468 52.5326 38.8794 52.5163 38.9119 52.5001C39.0911 52.4186 39.2621 52.3372 39.4413 52.2558C39.4576 52.2476 39.4739 52.2395 39.4902 52.2313C39.6612 52.1499 39.8241 52.0685 39.987 51.987C40.0195 51.9707 40.044 51.9544 40.0765 51.9382C40.2394 51.8567 40.4104 51.7672 40.5733 51.6776C40.614 51.6531 40.6466 51.6369 40.6873 51.6124C40.8502 51.5228 41.0049 51.4333 41.1678 51.3437C41.2085 51.3193 41.2411 51.303 41.2818 51.2786C41.4447 51.189 41.5995 51.0913 41.7623 50.9935C41.7949 50.9773 41.8193 50.961 41.8519 50.9365C42.0067 50.8469 42.1532 50.7492 42.2998 50.6515C42.3243 50.6352 42.3487 50.6271 42.365 50.6108C42.5197 50.5131 42.6826 50.4072 42.8373 50.3014C42.8699 50.2769 42.9106 50.2525 42.9432 50.2281C43.0898 50.1303 43.2445 50.0245 43.3911 49.9186C43.4318 49.8942 43.4726 49.8616 43.5051 49.8372C43.6517 49.7313 43.7983 49.6255 43.9449 49.5196C43.9775 49.4952 44.0182 49.4626 44.0508 49.4382C44.1974 49.3242 44.344 49.2183 44.4906 49.1043C44.515 49.088 44.5394 49.0636 44.5639 49.0473C44.7023 48.9414 44.8326 48.8356 44.9629 48.7215C44.9955 48.6971 45.0281 48.6727 45.0525 48.6483C45.1909 48.5343 45.3294 48.4202 45.4678 48.2981C45.5086 48.2655 45.5411 48.233 45.5819 48.2004C45.7122 48.0864 45.8506 47.9642 45.9809 47.8502C46.0216 47.8176 46.0542 47.7851 46.0949 47.7525C46.2252 47.6303 46.3555 47.5082 46.4858 47.386C46.5184 47.3535 46.5428 47.329 46.5754 47.2965C46.6976 47.1825 46.8197 47.0603 46.9338 46.9463C46.9582 46.9219 46.9826 46.8974 47.0152 46.8649C47.1374 46.7427 47.2595 46.6124 47.3817 46.4821C47.4143 46.4496 47.4468 46.417 47.4794 46.3763C47.6016 46.246 47.7237 46.1157 47.8377 45.9935C47.8703 45.9528 47.911 45.9202 47.9436 45.8795C48.0576 45.7492 48.1798 45.6189 48.2938 45.4887C48.3264 45.4479 48.3589 45.4154 48.3915 45.3747C48.5055 45.2362 48.6277 45.0978 48.7417 44.9593L50.4031 42.7281C50.5578 42.4919 50.7126 42.2558 50.8673 42.0115C50.8999 41.9545 50.9406 41.8974 50.9732 41.8486C51.0383 41.7427 51.0953 41.645 51.1605 41.5391C51.193 41.4821 51.2338 41.417 51.2663 41.36C51.4699 41.018 51.6654 40.6678 51.8527 40.3095C51.8853 40.2443 51.926 40.1792 51.9586 40.1059C52.0074 40.0082 52.0645 39.9023 52.1133 39.7965C52.1459 39.7232 52.1866 39.6499 52.2192 39.5847C52.2925 39.4382 52.3658 39.2916 52.4309 39.145C52.4798 39.0391 52.5287 38.9333 52.5775 38.8274C52.6182 38.7297 52.6671 38.632 52.7078 38.5343C52.7404 38.4528 52.7811 38.3714 52.8137 38.29C52.8544 38.1922 52.8951 38.0945 52.9359 37.9968C52.9766 37.9072 53.0092 37.8176 53.0417 37.7281C53.0825 37.6385 53.115 37.5489 53.1557 37.4512C53.2209 37.2883 53.2779 37.1255 53.3431 36.9626C53.3756 36.873 53.4082 36.7834 53.4408 36.702C53.4734 36.6043 53.5141 36.4984 53.5467 36.4007C53.5792 36.3111 53.6118 36.2216 53.6362 36.132C53.677 36.018 53.7095 35.9121 53.7421 35.7981C53.7665 35.7248 53.791 35.6434 53.8154 35.5701C53.8724 35.3909 53.9213 35.2199 53.9701 35.0408C53.9946 34.9593 54.0109 34.886 54.0353 34.8046C54.0679 34.6825 54.1004 34.5684 54.133 34.4463C54.1574 34.3649 54.1737 34.2834 54.1982 34.202C54.2307 34.0636 54.2633 33.9251 54.2959 33.7867C54.3122 33.7297 54.3285 33.6727 54.3366 33.6076C54.3773 33.4203 54.4181 33.233 54.4588 33.0375C54.4751 32.9642 54.4832 32.8991 54.4995 32.8258C54.5239 32.6873 54.5484 32.5571 54.5809 32.4186C54.5972 32.3453 54.6054 32.272 54.6217 32.1988C54.6542 32.0359 54.6787 31.873 54.7031 31.702C54.7112 31.6613 54.7194 31.6287 54.7194 31.588C54.752 31.3926 54.7764 31.189 54.8008 30.9854C54.809 30.9202 54.8171 30.8551 54.8253 30.79C54.8415 30.6434 54.8578 30.4968 54.8741 30.3421C54.8823 30.2769 54.8904 30.2118 54.8985 30.1466C54.9148 29.9593 54.9311 29.772 54.9474 29.5766C54.9474 29.5603 54.9474 29.5359 54.9556 29.5196C54.9719 29.316 54.98 29.1043 54.9963 28.8926C54.9963 28.8274 55.0044 28.7704 55.0044 28.7053C55.0126 28.5505 55.0207 28.3958 55.0207 28.233C55.0207 28.1678 55.0207 28.1108 55.0289 28.0457C55.0044 27.9235 55.0044 27.7118 55.0044 27.5001Z" fill="white"/>
<path d="M77.7144 43.1646H85.4023V35.8682H94.9144V30.0701H85.4023V26.1613H96.2501V20.3633H77.7144V43.1646Z" stroke="url(#paint1_linear)" stroke-miterlimit="10"/>
<path d="M105.143 27.2688V25.347H98.1394V43.1646H105.502V35.2492C105.502 32.6841 106.764 31.4056 109.28 31.4056C109.777 31.4056 110.323 31.4463 110.909 31.5359V25.0212C108.368 25.0212 106.446 25.7704 105.143 27.2688Z" stroke="url(#paint2_linear)" stroke-miterlimit="10"/>
<path d="M126.92 26.0962C125.43 25.3796 123.785 25.0212 121.985 25.0212C120.071 25.0212 118.353 25.4121 116.822 26.1939C115.291 26.9756 114.085 28.0668 113.206 29.4675C112.326 30.8681 111.886 32.4561 111.886 34.2395C111.886 35.9984 112.334 37.5864 113.222 38.9952C114.11 40.404 115.372 41.5115 117.001 42.3014C118.63 43.0913 120.519 43.4903 122.669 43.4903C126.122 43.4903 128.72 42.5375 130.455 40.6238L126.611 36.7476C125.984 37.2281 125.397 37.562 124.868 37.7574C124.339 37.9528 123.679 38.0506 122.897 38.0506C121.985 38.0506 121.228 37.8714 120.617 37.5131C120.006 37.1548 119.574 36.6418 119.314 35.9659H131.693C131.758 34.9235 131.79 34.3453 131.79 34.2395C131.79 32.3095 131.351 30.6483 130.471 29.2558C129.591 27.8714 128.411 26.8128 126.92 26.0962ZM119.183 32.4154C119.338 31.658 119.664 31.0717 120.161 30.6564C120.658 30.2411 121.293 30.0375 122.05 30.0375C122.808 30.0375 123.443 30.2493 123.94 30.6727C124.436 31.0962 124.762 31.6743 124.917 32.4154H119.183V32.4154Z" stroke="url(#paint3_linear)" stroke-miterlimit="10"/>
<path d="M148.192 26.0962C146.702 25.3796 145.057 25.0212 143.257 25.0212C141.343 25.0212 139.625 25.4121 138.094 26.1939C136.563 26.9756 135.357 28.0668 134.478 29.4675C133.598 30.8681 133.158 32.4561 133.158 34.2395C133.158 35.9984 133.606 37.5864 134.494 38.9952C135.382 40.404 136.644 41.5115 138.273 42.3014C139.902 43.0913 141.791 43.4903 143.941 43.4903C147.394 43.4903 149.992 42.5375 151.727 40.6238L147.883 36.7476C147.256 37.2281 146.669 37.562 146.14 37.7574C145.611 37.9528 144.951 38.0506 144.169 38.0506C143.257 38.0506 142.5 37.8714 141.889 37.5131C141.278 37.1548 140.846 36.6418 140.586 35.9659H152.965C153.03 34.9235 153.062 34.3453 153.062 34.2395C153.062 32.3095 152.623 30.6483 151.743 29.2558C150.863 27.8714 149.683 26.8128 148.192 26.0962ZM140.455 32.4154C140.61 31.658 140.936 31.0717 141.433 30.6564C141.93 30.2411 142.565 30.0375 143.322 30.0375C144.08 30.0375 144.715 30.2493 145.212 30.6727C145.708 31.0962 146.034 31.6743 146.189 32.4154H140.455V32.4154Z" stroke="url(#paint4_linear)" stroke-miterlimit="10"/>
<path d="M178.96 25.0212C177.747 25.0212 176.623 25.2574 175.605 25.7216C174.587 26.1857 173.715 26.8535 172.999 27.7248C172.388 26.8128 171.606 26.1369 170.653 25.689C169.7 25.2411 168.625 25.0212 167.428 25.0212C165.384 25.0212 163.707 25.6809 162.379 27.0082V25.347H155.375V43.1646H162.737V34.4675C162.737 33.3356 162.949 32.5131 163.373 31.9919C163.796 31.4707 164.358 31.2102 165.05 31.2102C166.378 31.2102 167.037 32.2281 167.037 34.2721V43.1646H174.4V34.4675C174.4 33.3356 174.611 32.5131 175.035 31.9919C175.458 31.4707 176.02 31.2102 176.712 31.2102C178.04 31.2102 178.7 32.2281 178.7 34.2721V43.1646H186.062V33.0017C186.062 30.3307 185.418 28.3356 184.123 27.0082C182.829 25.689 181.11 25.0212 178.96 25.0212Z" stroke="url(#paint5_linear)" stroke-miterlimit="10"/>
<path d="M204.353 26.1939C202.781 25.4121 200.99 25.0212 198.994 25.0212C197.015 25.0212 195.24 25.4121 193.668 26.1939C192.096 26.9756 190.859 28.0668 189.971 29.4675C189.083 30.8681 188.635 32.4561 188.635 34.2395C188.635 36.0229 189.083 37.6108 189.971 39.0115C190.859 40.4121 192.096 41.5115 193.668 42.3014C195.24 43.0913 197.015 43.4903 198.994 43.4903C200.99 43.4903 202.781 43.0913 204.353 42.3014C205.925 41.5115 207.155 40.4121 208.034 39.0115C208.914 37.6108 209.353 36.0229 209.353 34.2395C209.353 32.4561 208.914 30.8681 208.034 29.4675C207.155 28.0668 205.925 26.9756 204.353 26.1939ZM201.079 36.8291C200.534 37.448 199.841 37.7574 198.994 37.7574C198.147 37.7574 197.455 37.448 196.91 36.8291C196.364 36.2102 196.095 35.347 196.095 34.2395C196.095 33.132 196.364 32.2769 196.91 31.6662C197.455 31.0554 198.147 30.7541 198.994 30.7541C199.841 30.7541 200.534 31.0554 201.079 31.6662C201.625 32.2769 201.894 33.132 201.894 34.2395C201.894 35.347 201.625 36.2102 201.079 36.8291Z" stroke="url(#paint6_linear)" stroke-miterlimit="10"/>
<path d="M226.44 26.1939C224.868 25.4121 223.076 25.0212 221.081 25.0212C219.102 25.0212 217.326 25.4121 215.755 26.1939C214.183 26.9756 212.945 28.0668 212.057 29.4675C211.17 30.8681 210.722 32.4561 210.722 34.2395C210.722 36.0229 211.17 37.6108 212.057 39.0115C212.945 40.4121 214.183 41.5115 215.755 42.3014C217.326 43.0913 219.102 43.4903 221.081 43.4903C223.076 43.4903 224.868 43.0913 226.44 42.3014C228.011 41.5115 229.241 40.4121 230.121 39.0115C231 37.6108 231.44 36.0229 231.44 34.2395C231.44 32.4561 231 30.8681 230.121 29.4675C229.241 28.0668 228.011 26.9756 226.44 26.1939ZM223.166 36.8291C222.62 37.448 221.928 37.7574 221.081 37.7574C220.234 37.7574 219.542 37.448 218.996 36.8291C218.45 36.2102 218.182 35.347 218.182 34.2395C218.182 33.132 218.45 32.2769 218.996 31.6662C219.542 31.0554 220.234 30.7541 221.081 30.7541C221.928 30.7541 222.62 31.0554 223.166 31.6662C223.711 32.2769 223.98 33.132 223.98 34.2395C223.98 35.347 223.711 36.2102 223.166 36.8291Z" stroke="url(#paint7_linear)" stroke-miterlimit="10"/>
<path d="M251.425 27.0082C250.09 25.6809 248.322 25.0212 246.132 25.0212C245.065 25.0212 244.079 25.1923 243.167 25.5424C242.255 25.8926 241.449 26.4137 240.757 27.1059V25.347H233.753V43.1646H241.115V34.7932C241.115 33.5555 241.368 32.6515 241.881 32.0734C242.394 31.4952 243.061 31.2102 243.884 31.2102C245.342 31.2102 246.067 32.2281 246.067 34.2721V43.1646H253.429V33.0017C253.429 30.3307 252.761 28.3356 251.425 27.0082Z" stroke="url(#paint8_linear)" stroke-miterlimit="10"/>
<path d="M80.6332 23.0212V26.93H90.1454V32.728H80.6332V40.0244H72.9453V17.2231H91.481V23.0212H80.6332Z" fill="#FFFEFD"/>
<path d="M106.14 21.8811V28.3958C105.554 28.3062 105.008 28.2655 104.511 28.2655C101.995 28.2655 100.733 29.544 100.733 32.1091V40.0244H93.3704V22.2068H100.374V24.1287C101.677 22.6303 103.599 21.8811 106.14 21.8811Z" fill="#FFFEFD"/>
<path d="M126.924 32.8257H114.545C114.806 33.5016 115.237 34.0147 115.848 34.373C116.459 34.7313 117.216 34.9104 118.128 34.9104C118.91 34.9104 119.57 34.8127 120.099 34.6173C120.629 34.4218 121.215 34.0879 121.842 33.6075L125.686 37.4837C123.951 39.3974 121.353 40.3501 117.9 40.3501C115.75 40.3501 113.861 39.9511 112.232 39.1612C110.603 38.3713 109.341 37.2638 108.453 35.855C107.566 34.4462 107.118 32.8583 107.118 31.0993C107.118 29.316 107.557 27.728 108.437 26.3274C109.317 24.9267 110.522 23.8355 112.053 23.0537C113.584 22.272 115.302 21.8811 117.216 21.8811C119.016 21.8811 120.661 22.2394 122.151 22.956C123.642 23.6726 124.823 24.7231 125.702 26.1156C126.582 27.5081 127.022 29.1694 127.022 31.0993C127.022 31.2052 126.989 31.7834 126.924 32.8257ZM115.392 27.5163C114.895 27.9316 114.569 28.5179 114.415 29.2752H120.148C119.993 28.5342 119.668 27.956 119.171 27.5326C118.674 27.1091 118.039 26.8974 117.281 26.8974C116.516 26.8974 115.889 27.101 115.392 27.5163Z" fill="#FFFEFD"/>
<path d="M148.196 32.8257H135.817C136.078 33.5016 136.509 34.0147 137.12 34.373C137.731 34.7313 138.488 34.9104 139.4 34.9104C140.182 34.9104 140.842 34.8127 141.371 34.6173C141.9 34.4218 142.487 34.0879 143.114 33.6075L146.958 37.4837C145.223 39.3974 142.625 40.3501 139.172 40.3501C137.022 40.3501 135.133 39.9511 133.504 39.1612C131.875 38.3713 130.613 37.2638 129.725 35.855C128.838 34.4462 128.39 32.8583 128.39 31.0993C128.39 29.316 128.829 27.728 129.709 26.3274C130.589 24.9267 131.794 23.8355 133.325 23.0537C134.856 22.272 136.574 21.8811 138.488 21.8811C140.288 21.8811 141.933 22.2394 143.423 22.956C144.914 23.6726 146.095 24.7231 146.974 26.1156C147.854 27.5081 148.293 29.1694 148.293 31.0993C148.293 31.2052 148.261 31.7834 148.196 32.8257ZM136.664 27.5163C136.167 27.9316 135.841 28.5179 135.687 29.2752H141.42C141.265 28.5342 140.94 27.956 140.443 27.5326C139.946 27.1091 139.311 26.8974 138.553 26.8974C137.788 26.8974 137.161 27.101 136.664 27.5163Z" fill="#FFFEFD"/>
<path d="M179.355 23.8681C180.65 25.1954 181.293 27.1905 181.293 29.8616V40.0244H173.931V31.1319C173.931 29.0879 173.271 28.07 171.944 28.07C171.251 28.07 170.689 28.3306 170.266 28.8518C169.842 29.373 169.631 30.1954 169.631 31.3274V40.0244H162.269V31.1319C162.269 29.0879 161.609 28.07 160.281 28.07C159.589 28.07 159.027 28.3306 158.604 28.8518C158.18 29.373 157.969 30.1954 157.969 31.3274V40.0244H150.606V22.2068H157.61V23.8681C158.938 22.5407 160.615 21.8811 162.66 21.8811C163.857 21.8811 164.932 22.101 165.884 22.5489C166.837 22.9967 167.619 23.6726 168.23 24.5847C168.947 23.7134 169.818 23.0456 170.836 22.5814C171.854 22.1173 172.978 21.8811 174.191 21.8811C176.341 21.8811 178.06 22.5407 179.355 23.8681Z" fill="#FFFEFD"/>
<path d="M188.899 39.1612C187.327 38.3713 186.09 37.272 185.202 35.8713C184.314 34.4707 183.866 32.8827 183.866 31.0993C183.866 29.316 184.314 27.728 185.202 26.3274C186.09 24.9267 187.327 23.8355 188.899 23.0537C190.471 22.272 192.246 21.8811 194.225 21.8811C196.221 21.8811 198.012 22.272 199.584 23.0537C201.156 23.8355 202.386 24.9267 203.265 26.3274C204.145 27.728 204.584 29.316 204.584 31.0993C204.584 32.8827 204.145 34.4707 203.265 35.8713C202.386 37.272 201.156 38.3713 199.584 39.1612C198.012 39.9511 196.221 40.3501 194.225 40.3501C192.246 40.3501 190.471 39.9511 188.899 39.1612ZM196.31 33.6889C196.856 33.07 197.125 32.2068 197.125 31.0993C197.125 29.9919 196.856 29.1368 196.31 28.5261C195.765 27.9153 195.072 27.614 194.225 27.614C193.378 27.614 192.686 27.9153 192.14 28.5261C191.595 29.1368 191.326 29.9919 191.326 31.0993C191.326 32.2068 191.595 33.07 192.14 33.6889C192.686 34.3078 193.378 34.6173 194.225 34.6173C195.072 34.6173 195.765 34.3078 196.31 33.6889Z" fill="#FFFEFD"/>
<path d="M210.986 39.1612C209.414 38.3713 208.176 37.272 207.288 35.8713C206.401 34.4707 205.953 32.8827 205.953 31.0993C205.953 29.316 206.401 27.728 207.288 26.3274C208.176 24.9267 209.414 23.8355 210.986 23.0537C212.557 22.272 214.333 21.8811 216.312 21.8811C218.307 21.8811 220.099 22.272 221.67 23.0537C223.242 23.8355 224.472 24.9267 225.352 26.3274C226.231 27.728 226.671 29.316 226.671 31.0993C226.671 32.8827 226.231 34.4707 225.352 35.8713C224.472 37.272 223.242 38.3713 221.67 39.1612C220.099 39.9511 218.307 40.3501 216.312 40.3501C214.333 40.3501 212.557 39.9511 210.986 39.1612ZM218.397 33.6889C218.942 33.07 219.211 32.2068 219.211 31.0993C219.211 29.9919 218.942 29.1368 218.397 28.5261C217.851 27.9153 217.159 27.614 216.312 27.614C215.465 27.614 214.773 27.9153 214.227 28.5261C213.681 29.1368 213.413 29.9919 213.413 31.0993C213.413 32.2068 213.681 33.07 214.227 33.6889C214.773 34.3078 215.465 34.6173 216.312 34.6173C217.159 34.6173 217.851 34.3078 218.397 33.6889Z" fill="#FFFEFD"/>
<path d="M246.656 23.8681C247.992 25.1954 248.66 27.1905 248.66 29.8616V40.0244H241.298V31.1319C241.298 29.0879 240.573 28.07 239.115 28.07C238.292 28.07 237.625 28.355 237.112 28.9332C236.598 29.5114 236.346 30.4153 236.346 31.6531V40.0244H228.984V22.2068H235.988V23.9658C236.68 23.2736 237.486 22.7524 238.398 22.4023C239.31 22.0521 240.296 21.8811 241.363 21.8811C243.553 21.8811 245.321 22.5407 246.656 23.8681Z" fill="#FFFEFD"/>
<defs>
<linearGradient id="paint0_linear" x1="-0.00356706" y1="27.5028" x2="55.0008" y2="27.5028" gradientUnits="userSpaceOnUse">
<stop stop-color="#70D5EA"/>
<stop offset="0.5" stop-color="#D483FB"/>
<stop offset="1" stop-color="#FF3CAC"/>
</linearGradient>
<linearGradient id="paint1_linear" x1="77.3482" y1="31.7652" x2="96.6169" y2="31.7652" gradientUnits="userSpaceOnUse">
<stop stop-color="#3B6AFF"/>
<stop offset="0.5" stop-color="#D483FB"/>
<stop offset="1" stop-color="#E21485"/>
</linearGradient>
<linearGradient id="paint2_linear" x1="97.7733" y1="34.0942" x2="111.276" y2="34.0942" gradientUnits="userSpaceOnUse">
<stop stop-color="#3B6AFF"/>
<stop offset="0.5" stop-color="#D483FB"/>
<stop offset="1" stop-color="#E21485"/>
</linearGradient>
<linearGradient id="paint3_linear" x1="111.521" y1="34.2571" x2="132.157" y2="34.2571" gradientUnits="userSpaceOnUse">
<stop stop-color="#3B6AFF"/>
<stop offset="0.5" stop-color="#D483FB"/>
<stop offset="1" stop-color="#E21485"/>
</linearGradient>
<linearGradient id="paint4_linear" x1="132.793" y1="34.2571" x2="153.429" y2="34.2571" gradientUnits="userSpaceOnUse">
<stop stop-color="#3B6AFF"/>
<stop offset="0.5" stop-color="#D483FB"/>
<stop offset="1" stop-color="#E21485"/>
</linearGradient>
<linearGradient id="paint5_linear" x1="155.009" y1="34.0942" x2="186.429" y2="34.0942" gradientUnits="userSpaceOnUse">
<stop stop-color="#3B6AFF"/>
<stop offset="0.5" stop-color="#D483FB"/>
<stop offset="1" stop-color="#E21485"/>
</linearGradient>
<linearGradient id="paint6_linear" x1="188.269" y1="34.2571" x2="209.72" y2="34.2571" gradientUnits="userSpaceOnUse">
<stop stop-color="#3B6AFF"/>
<stop offset="0.5" stop-color="#D483FB"/>
<stop offset="1" stop-color="#E21485"/>
</linearGradient>
<linearGradient id="paint7_linear" x1="210.355" y1="34.2571" x2="231.806" y2="34.2571" gradientUnits="userSpaceOnUse">
<stop stop-color="#3B6AFF"/>
<stop offset="0.5" stop-color="#D483FB"/>
<stop offset="1" stop-color="#E21485"/>
</linearGradient>
<linearGradient id="paint8_linear" x1="233.386" y1="34.0942" x2="253.795" y2="34.0942" gradientUnits="userSpaceOnUse">
<stop stop-color="#3B6AFF"/>
<stop offset="0.5" stop-color="#D483FB"/>
<stop offset="1" stop-color="#E21485"/>
</linearGradient>
</defs>
</svg>
